<?xml version="1.0" encoding="UTF-8" standalone="no"?>
<svg
   xmlns:dc="http://purl.org/dc/elements/1.1/"
   xmlns:cc="http://creativecommons.org/ns#"
   xmlns:rdf="http://www.w3.org/1999/02/22-rdf-syntax-ns#"
   xmlns:svg="http://www.w3.org/2000/svg"
   xmlns="http://www.w3.org/2000/svg"
   width="96"
   height="96"
   viewBox="0 0 23.999997 24"
   fill="none"
   stroke="currentColor"
   stroke-width="2.5"
   stroke-linecap="round"
   stroke-linejoin="round"
   class="feather feather-box"
   version="1.1"
   id="svg8">
  <metadata
     id="metadata14">
    <rdf:RDF>
      <cc:Work
         rdf:about="">
        <dc:format>image/svg+xml</dc:format>
        <dc:type
           rdf:resource="http://purl.org/dc/dcmitype/StillImage" />
        <dc:title></dc:title>
      </cc:Work>
    </rdf:RDF>
  </metadata>
  <defs
     id="defs12" />
  <path
     d="m 4.7900034,8.5752132 v 5.9429178 c 5.928e-4,0.530256 0.3091498,1.020029 0.8096488,1.285156 l 5.6675418,2.971459 c 0.501013,0.2654 1.118286,0.2654 1.619299,0 l 5.667542,-2.971459 c 0.500499,-0.265127 0.809056,-0.7549 0.809648,-1.285156 V 8.5752132"
     id="path2"
     style="stroke-width:1.93884" />
  <polyline
     points="3.27 6.96 12 12.01 20.73 6.96"
     id="polyline4"
     transform="matrix(0.80964889,0,0,0.74286469,2.2930112,3.21238)" />
  <path
     style="fill:none;stroke:#000000;stroke-width:1.75;stroke-linecap:butt;stroke-linejoin:miter;stroke-miterlimit:4;stroke-dasharray:none;stroke-opacity:1"
     d="m 4.859778,10.752128 c 0,0 -0.3425244,-5.1119146 -2.0994846,-4.7866997 -1.4057415,0.2602039 -0.3471217,2.7930164 -0.1056012,4.1603107 0.2790555,1.579785 1.7648817,4.493722 1.7648817,4.493722"
     id="path871-6" />
  <path
     style="fill:none;stroke:#000000;stroke-width:1.75;stroke-linecap:butt;stroke-linejoin:miter;stroke-miterlimit:4;stroke-dasharray:none;stroke-opacity:1"
     d="m 19.28312,10.595653 c 0,0 0.342524,-5.1119141 2.099485,-4.7866991 1.405741,0.260204 0.347121,2.7930168 0.1056,4.1603098 -0.279055,1.5797853 -1.764881,4.4937223 -1.764881,4.4937223"
     id="path871-6-5" />
</svg>
