<?xml version="1.0" encoding="UTF-8" standalone="no"?>
<svg
   xmlns:dc="http://purl.org/dc/elements/1.1/"
   xmlns:cc="http://creativecommons.org/ns#"
   xmlns:rdf="http://www.w3.org/1999/02/22-rdf-syntax-ns#"
   xmlns:svg="http://www.w3.org/2000/svg"
   xmlns="http://www.w3.org/2000/svg"
   xmlns:xlink="http://www.w3.org/1999/xlink"
   xmlns:sodipodi="http://sodipodi.sourceforge.net/DTD/sodipodi-0.dtd"
   xmlns:inkscape="http://www.inkscape.org/namespaces/inkscape"
   width="210mm"
   height="297mm"
   viewBox="0 0 210 297"
   version="1.1"
   id="svg8"
   inkscape:version="0.92.5 (2060ec1f9f, 2020-04-08)"
   sodipodi:docname="CoroNo2.svg">
  <defs
     id="defs2">
    <inkscape:path-effect
       effect="roughen"
       id="path-effect4598"
       is_visible="true"
       method="segments"
       max_segment_size="4"
       segments="10"
       displace_x="4;1"
       displace_y="4;1"
       global_randomize="1;1"
       handles="along"
       shift_nodes="true"
       fixed_displacement="false"
       spray_tool_friendly="false" />
    <inkscape:path-effect
       effect="perspective-envelope"
       up_left_point="27.69,40.891695"
       up_right_point="155.57281,40.891695"
       down_left_point="27.587019,167.16263"
       down_right_point="155.57281,167.16263"
       id="path-effect4592"
       is_visible="true"
       deform_type="perspective"
       horizontal_mirror="false"
       vertical_mirror="false"
       overflow_perspective="false" />
    <inkscape:path-effect
       effect="perspective-envelope"
       up_left_point="27.587019,41.189685"
       up_right_point="155.57281,40.891695"
       down_left_point="27.587019,167.16263"
       down_right_point="155.57281,167.16263"
       id="path-effect4590"
       is_visible="true"
       deform_type="perspective"
       horizontal_mirror="false"
       vertical_mirror="false"
       overflow_perspective="false" />
    <inkscape:path-effect
       effect="skeletal"
       id="path-effect4588"
       is_visible="true"
       pattern="M 0,0 H 1"
       copytype="single_stretched"
       prop_scale="-1000000"
       scale_y_rel="false"
       spacing="0"
       normal_offset="0"
       tang_offset="0"
       prop_units="false"
       vertical_pattern="false"
       fuse_tolerance="0" />
    <inkscape:path-effect
       effect="lattice2"
       gridpoint0="27.587019,40.891695"
       gridpoint1="155.57281,40.891695"
       gridpoint2="27.587019,167.16263"
       gridpoint3="155.57281,167.16263"
       gridpoint4="59.583467,40.891695"
       gridpoint5="123.57636,40.891695"
       gridpoint6="59.583467,167.16263"
       gridpoint7="123.57636,167.16263"
       gridpoint8x9="91.579914,40.891695"
       gridpoint10x11="91.579914,167.16263"
       gridpoint12="27.587019,72.459429"
       gridpoint13="155.57281,72.459429"
       gridpoint14="27.587019,135.5949"
       gridpoint15="155.57281,135.5949"
       gridpoint16="59.583467,72.459429"
       gridpoint17="123.57636,72.459429"
       gridpoint18="59.583467,135.5949"
       gridpoint19="123.57636,135.5949"
       gridpoint20x21="91.579914,72.459429"
       gridpoint22x23="91.579914,135.5949"
       gridpoint24x26="27.587019,104.02716"
       gridpoint25x27="155.57281,104.02716"
       gridpoint28x30="59.583467,104.02716"
       gridpoint29x31="123.57636,104.02716"
       gridpoint32x33x34x35="91.579914,104.02716"
       id="path-effect4586"
       is_visible="true"
       horizontal_mirror="false"
       vertical_mirror="false"
       live_update="true" />
    <inkscape:path-effect
       effect="knot"
       id="path-effect4584"
       is_visible="true"
       interruption_width="3"
       prop_to_stroke_width="true"
       add_stroke_width="true"
       add_other_stroke_width="true"
       switcher_size="15"
       crossing_points_vector="" />
    <inkscape:path-effect
       effect="rough_hatches"
       id="path-effect858"
       is_visible="true"
       direction="91.579914,99.027163 , 5.8040342,0"
       dist_rdm="75;1"
       growth="0"
       do_bend="true"
       bender="91.579914,104.02716 , 5,0"
       bottom_edge_variation="5.03;2147483646"
       top_edge_variation="6;1"
       bottom_tgt_variation="0;1"
       top_tgt_variation="0;1"
       scale_bf="1"
       scale_bb="1"
       scale_tf="1"
       scale_tb="1"
       top_smth_variation="0;1"
       bottom_smth_variation="0;1"
       fat_output="true"
       stroke_width_top="1"
       stroke_width_bottom="1"
       front_thickness="1"
       back_thickness="0.25" />
    <inkscape:path-effect
       effect="bend_path"
       id="path-effect856"
       is_visible="true"
       bendpath="M 27.587019,104.02716 H 155.57281"
       prop_scale="1"
       scale_y_rel="false"
       vertical="false" />
    <inkscape:path-effect
       effect="interpolate_points"
       id="path-effect854"
       is_visible="true"
       interpolator_type="CentripetalCatmullRom" />
    <inkscape:path-effect
       effect="envelope"
       id="path-effect852"
       is_visible="true"
       yy="true"
       xx="true"
       bendpath1="M 27.559432,40.850803 H 155.54522"
       bendpath2="M 155.54522,40.850803 V 167.12174"
       bendpath3="M 27.559432,167.12174 H 155.54522"
       bendpath4="M 27.559432,40.850803 V 167.12174" />
    <inkscape:path-effect
       effect="envelope"
       id="path-effect850"
       is_visible="true"
       yy="true"
       xx="true"
       bendpath1="M 27.587019,40.891695 H 155.57281"
       bendpath2="M 155.57281,40.891695 V 167.16263"
       bendpath3="M 27.587019,167.16263 H 155.57281"
       bendpath4="M 27.587019,40.891695 V 167.16263" />
    <inkscape:path-effect
       effect="skeletal"
       id="path-effect844"
       is_visible="true"
       pattern="M 0,0 H 1"
       copytype="single_stretched"
       prop_scale="-1000000"
       scale_y_rel="false"
       spacing="0"
       normal_offset="0"
       tang_offset="0"
       prop_units="false"
       vertical_pattern="false"
       fuse_tolerance="0" />
    <inkscape:path-effect
       effect="interpolate"
       id="path-effect842"
       is_visible="true"
       trajectory="M 0,0 V 0"
       equidistant_spacing="true"
       steps="5" />
    <inkscape:path-effect
       effect="interpolate_points"
       id="path-effect840"
       is_visible="true"
       interpolator_type="CentripetalCatmullRom" />
    <inkscape:path-effect
       effect="envelope"
       id="path-effect838"
       is_visible="true"
       yy="true"
       xx="true"
       bendpath1="M 27.922418,40.891695 H 155.23743"
       bendpath2="M 155.23743,40.891695 V 166.56634"
       bendpath3="M 27.922418,166.56634 H 155.23743"
       bendpath4="M 27.922418,40.891695 V 166.56634" />
    <inkscape:path-effect
       effect="bend_path"
       id="path-effect836"
       is_visible="true"
       bendpath="M 27.922418,103.72902 H 155.23743"
       prop_scale="1"
       scale_y_rel="false"
       vertical="false" />
    <linearGradient
       inkscape:collect="always"
       id="linearGradient832">
      <stop
         style="stop-color:#000dff;stop-opacity:0.529"
         offset="0"
         id="stop828" />
      <stop
         style="stop-color:#000dff;stop-opacity:1"
         offset="1"
         id="stop830" />
    </linearGradient>
    <inkscape:path-effect
       effect="fillet_chamfer"
       id="path-effect1269"
       is_visible="true"
       lpeversion="1"
       satellites_param="F,0,0,1,0,2.1166667,0,1 @ F,0,0,1,0,2.1166667,0,1 @ F,0,0,1,0,2.1166667,0,1 @ F,0,0,1,0,2.1166667,0,1 @ F,0,0,1,0,2.1166667,0,1 @ F,0,0,1,0,2.1166667,0,1 @ F,0,0,1,0,2.1166667,0,1 @ F,0,0,1,0,2.1166667,0,1 @ F,0,0,1,0,2.1166667,0,1 @ F,0,0,1,0,2.1166667,0,1 @ F,0,0,1,0,2.1166667,0,1 @ F,0,0,1,0,2.1166667,0,1 @ F,0,0,1,0,2.1166667,0,1 @ F,0,0,1,0,2.1166667,0,1 @ F,0,0,1,0,2.1166667,0,1 @ F,0,0,1,0,2.1166667,0,1 @ F,0,0,1,0,2.1166667,0,1 @ F,0,0,1,0,2.1166667,0,1 @ F,0,0,1,0,2.1166667,0,1 @ F,0,0,1,0,2.1166667,0,1 @ F,0,0,1,0,2.1166667,0,1 @ F,0,0,1,0,2.1166667,0,1 @ F,0,0,1,0,2.1166667,0,1 @ F,0,0,1,0,2.1166667,0,1 @ F,0,0,1,0,2.1166667,0,1 @ F,0,0,1,0,2.1166667,0,1 @ F,0,0,1,0,2.1166667,0,1 @ F,0,0,1,0,2.1166667,0,1 @ F,0,0,1,0,2.1166667,0,1 @ F,0,0,1,0,2.1166667,0,1 @ F,0,0,1,0,2.1166667,0,1 @ F,0,0,1,0,2.1166667,0,1 @ F,0,0,1,0,2.1166667,0,1 @ F,0,0,1,0,2.1166667,0,1 @ F,0,0,1,0,2.1166667,0,1 @ F,0,0,1,0,2.1166667,0,1 @ F,0,0,1,0,2.1166667,0,1 @ F,0,0,1,0,2.1166667,0,1 @ F,0,0,1,0,2.1166667,0,1 @ F,0,0,1,0,2.1166667,0,1 @ F,0,0,1,0,2.1166667,0,1 @ F,0,0,1,0,2.1166667,0,1 @ F,0,0,1,0,2.1166667,0,1 @ F,0,0,1,0,2.1166667,0,1 @ F,0,0,1,0,2.1166667,0,1 @ F,0,0,1,0,2.1166667,0,1 @ F,0,0,1,0,2.1166667,0,1 @ F,0,0,1,0,2.1166667,0,1 @ F,0,0,1,0,2.1166667,0,1 @ F,0,0,1,0,2.1166667,0,1 @ F,0,0,1,0,2.1166667,0,1 @ F,0,0,1,0,2.1166667,0,1 @ F,0,0,1,0,2.1166667,0,1 @ F,0,0,1,0,2.1166667,0,1 @ F,0,0,1,0,2.1166667,0,1 @ F,0,0,1,0,2.1166667,0,1 @ F,0,0,1,0,2.1166667,0,1 @ F,0,0,1,0,2.1166667,0,1 @ F,0,0,1,0,2.1166667,0,1 @ F,0,0,1,0,2.1166667,0,1 @ F,0,0,1,0,2.1166667,0,1 @ F,0,0,1,0,2.1166667,0,1 @ F,0,0,1,0,2.1166667,0,1 @ F,0,0,1,0,2.1166667,0,1 @ F,0,0,1,0,2.1166667,0,1 @ F,0,0,1,0,2.1166667,0,1 @ F,0,0,1,0,2.1166667,0,1 @ F,0,0,1,0,2.1166667,0,1 @ F,0,0,1,0,2.1166667,0,1 @ F,0,0,1,0,2.1166667,0,1 @ F,0,0,1,0,2.1166667,0,1 @ F,0,0,1,0,2.1166667,0,1 @ F,0,0,1,0,2.1166667,0,1 @ F,0,0,1,0,2.1166667,0,1 @ F,0,0,1,0,2.1166667,0,1 @ F,0,0,1,0,2.1166667,0,1 @ F,0,0,1,0,2.1166667,0,1 @ F,0,0,1,0,2.1166667,0,1 @ F,0,0,1,0,2.1166667,0,1 @ F,0,0,1,0,2.1166667,0,1 @ F,0,0,1,0,2.1166667,0,1 @ F,0,0,1,0,2.1166667,0,1 @ F,0,0,1,0,2.1166667,0,1 @ F,0,0,1,0,2.1166667,0,1 @ F,0,0,1,0,2.1166667,0,1"
       unit="px"
       method="auto"
       mode="F"
       radius="8"
       chamfer_steps="1"
       flexible="false"
       use_knot_distance="true"
       apply_no_radius="true"
       apply_with_radius="true"
       only_selected="false"
       hide_knots="false" />
    <radialGradient
       inkscape:collect="always"
       xlink:href="#linearGradient832"
       id="radialGradient834"
       cx="91.579926"
       cy="103.72792"
       fx="91.579926"
       fy="103.72792"
       r="64.734582"
       gradientTransform="matrix(1,-3.3447674e-7,3.4814637e-7,1.0408687,-3.6112494e-5,-4.2391953)"
       gradientUnits="userSpaceOnUse" />
  </defs>
  <sodipodi:namedview
     id="base"
     pagecolor="#ffffff"
     bordercolor="#666666"
     borderopacity="1.0"
     inkscape:pageopacity="0.0"
     inkscape:pageshadow="2"
     inkscape:zoom="0.49497475"
     inkscape:cx="587.96768"
     inkscape:cy="1019.322"
     inkscape:document-units="mm"
     inkscape:current-layer="g855"
     inkscape:document-rotation="0"
     showgrid="false"
     inkscape:window-width="1920"
     inkscape:window-height="1029"
     inkscape:window-x="0"
     inkscape:window-y="0"
     inkscape:window-maximized="1" />
  <metadata
     id="metadata5">
    <rdf:RDF>
      <cc:Work
         rdf:about="">
        <dc:format>image/svg+xml</dc:format>
        <dc:type
           rdf:resource="http://purl.org/dc/dcmitype/StillImage" />
        <dc:title></dc:title>
      </cc:Work>
    </rdf:RDF>
  </metadata>
  <g
     inkscape:label="Layer 1"
     inkscape:groupmode="layer"
     id="layer1">
    <g
       id="g855">
      <path
         style="opacity:0.675;fill:url(#radialGradient834);fill-opacity:1;stroke:#000784;stroke-width:2.15499997;stroke-linecap:butt;stroke-linejoin:miter;stroke-miterlimit:4;stroke-dasharray:none;stroke-opacity:1"
         d="m 82.453832,142.80817 -1.865005,5.22474 -3.722062,0.80466 -2.675333,2.44437 0.199877,0.79539 -1.491459,2.41387 -0.301088,3.03651 3.534855,1.84704 -1.658813,3.82922 1.17822,-3.93024 -0.464599,1.72138 1.279251,-0.009 -0.355001,1.13803 0.719091,1.83872 -0.810599,2.84671 1.864121,-2.01817 1.54821,-1.27303 1.394275,-0.70427 0.629511,0.0764 2.015918,0.034 -1.913892,-1.04461 0.111688,0.16106 -0.22895,0.66559 -0.490711,0.84735 -0.08366,0.46033 0.241184,-0.37594 -3.897253,-0.39159 4.549219,4.18027 2.441377,2.25626 -1.578003,-1.19275 -1.679565,-1.24395 -2.577137,-1.33981 -0.935669,1.11389 -0.481807,-0.3904 -0.699108,-0.71273 -0.109471,-0.99037 -1.118574,-1.38772 -5.037727,1.70043 0.600044,-1.76009 0.0085,-0.12604 1.991034,-0.86061 -2.22472,0.44557 0.04785,0.12146 1.249955,0.95941 -3.231811,-2.3278 -0.286625,2.86334 -3.18239,-2.88854 -1.31105,-0.48595 -2.186329,-1.56432 -0.121872,-0.0213 -1.721576,0.0611 0.272168,0.11308 1.671761,-2.06383 -1.442138,0.51562 -2.548148,2.1784 2.748262,-3.72063 1.355885,0.85087 1.114403,-3.59187 -1.995918,1.68383 0.796873,0.28752 -0.285886,-2.45384 0.495084,0.14101 0.660087,-0.05 1.606787,1.33513 0.899748,0.19633 -0.0077,-1.40426 2.153138,2.18438 2.162292,2.177 0.289235,-0.34152 -0.552978,-1.96484 -0.375977,1.60174 2.576531,-2.84794 -3.13086,-1.63531 -1.035808,-2.1773 1.241036,-0.28636 1.094874,-2.22287 3.646622,-3.72183 -2.351807,2.53271 1.329487,-5.3024 3.696503,-0.006 -1.745606,1.16449 c -0.699891,-0.31779 0.271847,2.37275 -0.406922,2.01935 0.17384,2.25198 -6.571709,-0.0761 -8.099172,-1.2837 -3.800217,1.53864 2.388543,-3.67392 2.157757,-3.88942 2.354542,-3.75854 -3.22175,0.31891 -3.740316,-0.1557 -2.626306,0.87628 2.424381,-3.27236 2.040715,-3.71301 2.624504,-3.19442 -2.18471,-4.55659 -3.012948,-5.14797 -0.741577,-3.14429 1.509887,1.29798 1.509887,1.29798 0.170627,0.34171 -1.011817,-2.48305 -2.54478,-2.88553 1.145359,-1.48151 -1.308481,-0.59506 -2.582834,-0.68555 -0.66047,-0.0469 -5.230104,0.49314 -5.490035,0.13068 l -0.493522,0.32273 -4.570332,0.63046 -0.617981,0.0692 -0.887252,0.74123 -0.247418,1.19739 -2.555788,0.7106 -0.201755,0.92266 -3.251332,-1.97618 1.890936,4.76748 -0.283977,-0.83549 -0.531602,1.64605 0.544878,-0.70824 -2.627429,0.35189 2.430926,2.8463 0.544872,-0.75014 1.536839,1.38919 0.447028,0.86058 1.317513,-0.76183 0.242527,1.72986 1.19713,1.34916 2.78529,0.55705 -4.821414,1.53874 1.078674,-0.008 -1.569516,-1.85267 0.329067,3.005 -0.75717,-0.55691 -0.618989,-0.75895 -0.664658,0.0666 -0.534561,2.66028 -0.611244,-2.74889 -1.000211,-0.99372 -1.333399,-0.63555 0.327456,-1.27227 -1.927059,-3.7479 -0.490539,-1.54467 -0.53711,-0.36621 -2.441345,0.71154 -0.843184,-1.38167 1.277584,-3.19045 0.140503,1.52796 2.588118,-2.87511 -4.0368,-2.40219 3.227784,0.75867 -3.021142,-1.61067 -0.824524,0.61719 -1.348877,-0.51257 0.02911,1.708 -0.162947,-0.72908 -0.244883,-2.0872 -0.792312,1.61667 0.06,0.81741 1.267437,-1.94999 2.78548,0.73131 0.895747,-1.04381 -0.09164,-1.30961 0.08776,1.00228 1.31676,-2.37309 0.510496,1.02717 -1.835453,-2.2965 -0.46362,0.41643 0.789552,1.3095 -1.11853,0.89722 0.606697,0.56562 1.671026,-1.37811 0.160995,1.98251 -0.653584,1.42062 1.978295,-1.97396 -0.168744,2.4543 -0.15113,-0.16532 2.726254,-0.15541 -0.0929,-0.71422 4.483533,-3.34236 1.614991,-2.51221 0.263183,-0.78955 -0.21963,-0.60719 1.031192,-0.61928 3.092309,-0.9617 -0.143715,1.77542 1.505779,0.75588 0.406086,0.59324 c -0.287902,-0.56408 -0.617494,-1.23755 -0.876046,-1.8101 -0.299092,-0.64254 -0.450147,-1.10635 -0.665989,-1.64903 -0.207138,-0.60436 0.806321,0.24334 0.60665,-0.33757 0.890027,0.35128 -0.590454,-2.21432 -0.976328,-3.4143 -0.02686,-0.60991 1.140228,-0.25627 0.952314,-0.86218 1.222659,-0.0303 -0.399147,-1.7179 -0.861468,-2.8205 0.05918,-0.35353 -0.575864,-1.44569 -0.881777,-2.14977 -0.216548,-0.61492 0.571931,-2.5141 0.363688,-3.02808 0.738486,-2.17786 -2.34025,-1.10428 -2.790557,-1.35045 -0.354374,-0.19372 0.659703,0.17445 0.659703,-0.26583 0,-0.11075 0.08135,-0.19155 0.08547,-0.30969 0.08354,-0.0933 1.170752,-3.35881 1.177082,-3.4936 1.198863,-3.909665 -0.658652,0.25773 -0.88469,0.22803 4.96e-4,-0.0829 -0.445485,-0.13346 -0.454346,-0.13458 -0.447199,-0.13444 1.038517,-1.139839 1.155779,-1.136836 0.98075,-1.179558 -0.873159,2.332706 -0.900856,2.330066 -0.123704,1.20629 1.306655,1.02489 1.3147,0.94551 1.32302,0.8649 0.65637,0.29758 0.296278,-0.2703 1.046566,1.19559 -0.08774,-0.79303 -0.441389,-1.22815 -0.09628,-0.11847 -2.255201,1.83918 -2.255197,1.83913 l 0.147441,-0.51962 -3.666735,0.90627 0.237248,-3.12747 -2.513702,-1.775124 -0.775586,0.206723 1.602136,-2.467089 -6.890389,-1.398132 -2.174581,-0.25734 -2.118375,3.878655 2.37207,-1.01654 1.514498,0.08362 -1.710564,1.866898 1.60447,1.794131 -1.823349,-0.97043 -1.549919,2.30528 -0.654602,-0.60425 -2.544155,-1.93582 3.188678,6.17508 -0.398815,0.27079 -1.01886,0.75988 -1.363679,-2.47355 0.140075,0.60077 0.165833,3.24011 -1.679908,-2.34184 1.15201,1.66919 -0.88342,-2.26753 -3.25193,0.33014 3.143309,-1.36188 3.240945,1.88448 -5.105874,-0.9684 2.074151,-2.32165 -1.503906,-0.0855 -0.532226,0.19468 -1.006528,-5.519192 0.04551,-0.275242 -0.439434,-0.969778 2.813286,2.131076 -0.750555,-0.688374 1.823399,-5.364951 -0.550368,0.136189 1.223231,-2.113952 -3.072266,-0.279297 1.61291,-1.769912 0.229538,-1.500076 0.527891,-0.685213 -0.06479,-0.970606 0.610611,-1.06487 3.127168,0.736896 -2.322228,-1.565829 -0.06676,-1.259187 -0.972955,0.146642 2.799065,-0.02074 0.683522,2.971136 1.668764,-0.321204 3.281256,0.718794 -1.645137,-3.65516 1.445292,-1.012864 -3.084818,2.571458 4.454629,-0.982451 -3.93992,0.239042 -1.928501,2.804689 -0.109863,1.565552 1.79834,-1.416016 -0.06069,0.263093 -0.06014,1.53671 1.354248,1.118042 -2.171265,0.340943 0.29821,3.365311 2.017007,-2.751836 1.208008,0.547791 1.661304,-0.02308 1.680037,-0.06449 0.231184,-2.962398 4.792343,0.987803 1.270476,0.652605 0.261328,1.953971 0.42938,-0.125402 1.706976,0.254527 1.628808,1.739225 2.445222,-0.13596 c -0.08567,-0.719572 -0.500183,-0.746906 -0.490059,-1.45889 -0.365005,-0.258527 0.157993,-2.112627 0.340869,-3.067609 0.161643,-0.840119 2.285992,-2.319135 2.471677,-2.942204 2.063853,-1.240229 0.398984,-1.834135 0.451815,-2.008845 0.357943,-1.694359 0.79569,-0.654551 0.85945,-0.858077 0.855714,-0.834684 2.142503,-2.255394 2.307329,-2.766654 1.858131,-1.335086 0.508032,1.615729 0.561801,1.40922 0.710752,0.75781 -0.870799,-1.814089 -0.632398,-3.251764 -0.942452,0.185247 0.534768,-2.382684 1.267667,-3.371695 0.482044,-0.650494 1.355016,-0.511916 1.847697,-0.986967 l -0.640231,-1.318932 -0.676698,0.01771 -3.995657,-0.145953 1.215531,-4.409354 -1.995918,0.779711 1.946611,-4.816906 -5.227513,-3.727295 -0.515074,0.768682 0.0174,0.994201 -0.31305,0.08814 -0.535439,0.455723 -0.508477,0.326114 -0.947375,1.141376 -0.100731,0.0658 -0.505103,0.339165 -1.037599,0.01232 2.454411,-2.044853 -5.781386,4.133939 1.587651,1.447224 0.956054,-0.489868 -0.407678,-0.471973 -1.619161,-4.227421 0.349365,0.08569 0.199341,-0.28357 -1.063388,0.04383 2.855247,-3.418743 -2.144683,6.333017 -1.389502,-1.58738 -2.037938,0.819567 2.215179,-3.255055 3.145679,0.503066 1.27301,-3.250254 -0.194214,-0.02484 -0.05469,-1.898438 -0.236451,0.217407 -2.242292,2.226874 1.822458,-1.981667 1.13996,-2.644973 0.569838,-1.316617 1.603726,2.383202 1.448339,-0.808214 0.448769,-0.450872 2.010922,2.315414 2.472868,-3.38683 2.803603,3.306958 -1.041054,-6.308278 1.61383,1.797791 2.274943,-3.160172 -3.547428,-0.454649 0.08551,0.195862 0.454909,-0.0756 0.554353,0.481482 0.08961,-0.555245 1.272025,1.442658 -1.513796,-3.197657 1.640409,3.664335 1.77702,1.413418 -1.789769,1.1429 2.046497,0.656058 -1.753345,-1.020072 1.996357,-2.20978 -2.280313,1.851327 -2.18474,-1.127639 -0.6845,3.420072 2.261536,-0.437012 -1.788589,1.621635 0.879257,-1.230393 -2.235803,-1.511794 -0.577,4.287589 0.754008,1.39176 0.560916,1.4069 0.910635,0.910966 -1.685046,1.019633 2.671728,1.885399 1.757057,0.179323 0.180521,2.353161 0.556879,0.86224 3.098814,-0.867436 -0.384884,0.255362 -0.127712,0.816565 c 0.732951,-0.256629 1.797668,0.975283 2.521373,0.721468 1.133278,1.208739 2.122889,1.222495 2.901882,0.912151 1.388469,1.462579 -1.524628,-1.703088 -0.711495,-2.128716 -1.987055,-1.60693 4.14224,-1.19574 5.650657,-1.798454 1.779903,-0.02672 0.985289,-1.797863 1.239699,-1.900119 0.851755,-1.744947 1.7061,2.558073 2.069558,2.438263 1.879319,2.54167 4.048281,-2.395398 4.774833,-2.869462 2.328003,-1.651489 0.26001,-2.13208 0.26001,-2.13208 1.460697,-2.91551 1.005025,0.157049 1.43224,0.719174 0.21299,0.28025 -0.660508,1.259928 0.06047,1.19534 l -0.02591,-1.112086 -1.323767,-1.680014 -0.459234,-1.094246 1.397575,-1.453814 2.533252,-1.298139 -0.239036,-3.278321 0.113005,-2.94458 -2.963409,0.932225 1.192269,-4.196306 2.018019,-0.934543 -3.081401,2.694849 2.283386,1.911926 -4.224722,-0.04608 -1.63481,-1.84303 0.841688,0.418914 -1.830203,-0.366907 -0.837466,-1.642844 -1.331943,1.042547 1.498535,-1.39032 -0.354492,1.303467 -0.0047,-0.703065 -0.817324,1.487147 -0.220709,-6.181173 -2.472168,0.223389 3.477355,-0.114872 0.423828,-0.71521 1.006592,0.522217 -0.0523,0.589484 -0.743925,-1.103444 -1.128908,-3.259487 -0.06177,1.142236 1.976765,0.438624 1.648486,0.183231 1.069418,0.602512 1.930598,1.36896 -1.69209,0.386413 3.572647,-0.729516 0.635894,0.187374 1.954943,-1.330303 0.421126,0.52708 1.002486,1.818311 0.970121,1.538462 2.814655,-2.04474 0.677383,2.114838 1.411629,-0.898089 1.480454,-0.440595 1.567284,-0.121321 0.51319,-0.991918 0.27098,-1.190486 0.89212,0.168907 0.43096,-0.185729 0.0533,1.211416 -0.20369,2.41228 1.71368,-1.211243 -0.65758,1.07477 -0.44247,-1.336246 -2.07795,3.765951 1.18947,-2.074269 0.36384,2.57915 0.0935,-0.08342 1.53653,1.792389 -5.944309,1.089939 0.228248,-2.760084 1.942381,0.265625 -3.113331,-0.168409 -0.614624,-0.284668 0.809326,0.08728 -2.315372,0.590255 -1.424947,-0.67324 0.888004,-1.371582 0.39404,1.719996 -0.203385,1.574072 1.978619,1.317082 -0.645315,0.822345 -0.844475,3.028796 0.896413,2.252422 1.080782,4.357284 -0.348839,2.511696 -1.308297,-1.247379 -0.664673,-1.136719 c 0.731395,0.134276 2.725866,-0.34728 3.446799,-0.189381 1.640425,-0.546011 0.811097,0.100596 1.172595,0.192411 0.79784,0.116599 2.20625,0.858465 2.89142,1.08335 1.20274,0.608328 0.73424,0.305372 1.13616,0.453199 0.63207,0.29281 2.1848,1.187379 2.86379,1.485455 1.1296,0.801059 0.6833,0.571957 1.03575,0.734083 0.6011,0.546391 3.0788,2.041663 3.68494,2.326163 1.78711,1.450195 1.81567,-1.112305 1.81567,-1.112305 2.92893,-0.589786 -0.24177,-0.590854 -0.13168,-0.01659 0.0638,0.3329 0.16311,2.615975 0.9517,3.135807 l 1.07646,-1.304349 1.35075,-2.68947 2.17623,-3.804948 -0.47852,-0.122071 -0.0768,-0.264284 0.99935,1.733322 5.54894,-5.60155 -2.1286,1.343384 2.58392,-1.712581 0.13846,0.05606 -2.23003,-1.769847 1.39618,1.609802 -0.77423,-0.333 -1.24261,-1.180457 0.62928,0.460982 -1.33365,-1.208976 -0.68549,-0.66492 0.062,-1.159408 -1.93077,3.532959 0.47467,-3.868718 1.33822,-0.327949 1.62187,0.816441 3.09794,-4.80492 -1.86978,0.715711 0.19025,0.738098 -1.82264,0.009 -1.50732,-0.984375 3.06741,0.09712 0.31174,1.656724 -2.14795,-1.443115 0.10366,0.746471 1.30325,1.05298 1.59632,0.02397 0.94655,0.744619 1.38329,0.950707 -0.30637,0.508414 0.94383,0.721948 2.12247,1.33831 0.20374,0.006 -0.0707,2.393344 0.9187,0.631322 0.67823,-1.421216 1.97758,1.341659 1.64254,2.183639 0.29297,0.932617 0.0884,0.09721 0.97269,0.148328 1.36091,3.046398 3.66537,-0.825203 -2.08707,-0.636723 0.48988,2.479309 -1.09372,-0.148035 0.36584,0.138427 0.54863,0.790515 -0.56101,0.526997 -3.38629,-0.351828 -2.4068,2.708902 3.35528,-2.13916 1.71972,0.764372 -2.32122,-0.635099 0.77304,2.427565 -3.53426,-1.790438 -3.3404,-0.09502 0.53182,-2.785849 -1.18602,1.526277 -0.48638,-3.823322 4.31658,-2.766442 0.23645,4.042365 -0.42413,-4.408886 -1.82184,-0.05432 -3.37161,3.957963 -0.0452,-0.07568 -0.43353,0.72274 -0.54619,1.023981 0.67061,-1.609058 -3.84052,5.247539 -1.56251,2.440881 0.11426,-0.825195 -0.78308,2.784266 -1.16196,3.881135 c 0.6148,0.235588 -1.27873,0.726018 -0.70485,1.048289 -1.44516,0.795226 2.2774,1.510536 3.346,2.334342 0.59657,0.548886 -0.14801,2.167014 0.28179,2.536549 -0.53513,1.893278 1.41377,0.514695 1.91303,0.927264 0.91013,0.08025 0.89863,0.856946 1.3599,1.269524 0.44906,0.507419 2.03269,-1.526499 2.50513,-1.053166 1.77769,-1.695155 0.70024,2.730871 1.15185,3.954401 -0.40145,1.448391 1.9175,0.695684 2.13455,1.19325 1.85309,0.440912 0.35788,1.717242 0.27995,2.55946 -0.0711,0.768724 1.45578,1.670463 1.63366,2.367435 l 1.67059,0.176904 1.14963,0.637261 3.89234,-2.196354 0.40711,0.36499 -0.64747,0.507813 2.22565,-2.295215 1.27961,0.825836 2.47335,-2.880034 1.0459,1.201931 2.82331,4.115423 -0.47893,-1.941707 -0.23451,-0.128259 -0.83204,-0.625501 -1.10673,-0.990168 3.24952,0.872023 -3.17599,-1.908779 -0.71372,-2.584333 0.37848,-2.539886 0.69555,1.939164 -1.9129,-2.624923 -1.80301,0.789375 2.36054,-0.124158 3.98077,-1.248231 -0.40894,-0.490723 -1.73462,0.06836 -0.46907,-2.499776 2.38078,4.169409 0.5896,-0.24285 1.91834,0.37462 -2.98541,2.145949 0.3408,-0.187341 0.38823,1.621143 1.77761,-0.0036 1.944,-0.158419 0.76217,3.427539 -4.06445,4.086274 1.50551,-2.031092 0.26123,-0.12085 0.55176,0.268555 -0.63483,0.5 0.30842,-1.042152 0.17124,2.187426 0.57437,1.220479 0.34211,1.501132 -2.64581,4.012559 0.12204,-0.11032 1.46304,-0.56022 0.62809,1.66222 0.44276,0.0164 1.81439,0.97565 -0.10645,-0.85671 0.43737,-0.85604 -1.13983,1.30519 -0.92876,0.24394 -1.64327,0.70985 0.0322,0.38084 -0.40944,-0.24985 -0.40443,1.40672 -1.33971,-0.14443 -1.49876,1.71873 -0.92777,-0.35504 1.52929,-2.27036 0.47267,1.04867 0.53909,-1.65922 0.60589,-1.09064 1.58102,-4.241603 -3.69824,-0.979694 -0.35524,0.443629 -1.25103,0.804688 1.41851,-0.06042 -4.37001,-2.434731 0.1322,-0.007 -0.086,-0.701489 -4.05112,3.553352 -2.36261,-0.555908 -0.323,0.276855 -0.22119,-0.147272 -0.52229,2.236586 -1.85421,-0.79118 0.83446,-2.234572 c -0.24892,0.370899 -0.68736,0.571641 -0.88823,0.892934 -0.4205,0.184925 0.51252,0.599284 0.35671,0.885114 0.66034,0.398654 -0.51833,0.815114 -0.71479,1.166074 -0.18592,0.20941 -0.35038,-0.20994 -0.45333,-0.0192 -0.29278,-0.30375 0.0214,1.51587 -0.0855,1.85926 0.33618,0.84045 0.0624,0.15643 0.0624,0.15643 0.0423,0.22116 -0.5719,1.68205 -0.59481,1.7339 -0.7598,2.07958 1.63421,-3.78141 1.65266,-3.78085 1.7872,-2.963575 -1.25492,2.55699 -1.67675,3.28423 -0.0881,0.1519 2.21063,-1.26952 2.21063,-1.2627 0,0.63982 -0.12654,0.5801 -0.19603,1.23106 -0.18061,0.14925 -0.73234,2.30102 -0.92044,3.19241 -0.58915,1.00915 -0.54998,-0.57946 -0.65651,-0.13978 -0.60966,-0.4174 -1.54679,2.37983 -1.83456,3.51412 -1.16096,0.77356 -2.1165,0.89466 -2.22995,1.44221 -2.03287,0.66174 2.32491,-0.67181 2.3491,0.19158 2.57345,-1.31894 -0.46748,3.77011 -0.90086,5.28001 -0.26766,1.464 -0.63233,1.84637 -0.71173,2.08299 -0.54198,1.52028 -1.67991,0.32003 -1.73424,0.4622 -0.38736,1.01361 3.68085,1.59194 3.29064,2.46391 l 1.67676,0.96992 0.71271,0.71733 0.38827,0.86431 4.83457,0.43153 -0.52368,-2.30957 2.61085,1.79379 2.36091,0.69565 -1.12478,2.97919 1.39935,1.0395 1.8895,1.0118 -1.02493,-2.38592 0.21972,-0.87891 -0.41699,-0.28027 -0.10126,-2.80627 0.72742,-0.16565 -1.87586,1.3515 1.2738,-1.30035 0.44308,-0.51398 1.24356,0.10628 -0.18799,-0.50918 0.81951,0.22697 0.47795,0.59651 -0.34515,-0.84961 1.99198,0.48864 1.88912,1.39574 -0.004,-0.22146 -3.02222,3.37426 2.35448,-2.47262 -0.91476,-0.57646 1.29563,-1.06005 0.48672,1.34569 -0.40694,1.93399 -1.19216,0.77032 -2.03106,-0.12941 0.60849,-1.52244 -0.32285,4.75432 -1.82082,0.38459 -0.61563,0.56282 0.0266,1.49346 0.11885,-0.32162 1.19705,0.79826 -1.66343,1.97198 -2.48695,1.09698 0.77768,-0.39017 -2.70564,0.52414 -0.62629,3.06561 0.26352,2.7488 0.002,-0.0486 -1.3714,0.0824 2.10956,0.59361 0.20802,-2.89079 -2.15524,0.0419 -1.52487,-0.93764 -2.50143,2.00343 -1.8507,3.83658 4.06579,-2.28992 -0.5687,-0.66339 0.059,-2.68489 -0.47215,2.61013 -1.08612,-1.63752 0.62103,-0.47718 0.1104,-0.0604 2.33315,1.10361 -0.1423,-2.91765 0.92557,-1.97111 -0.0549,0.73059 -0.11838,1.33531 -0.60821,0.41522 -0.58029,-1.91859 -2.02752,-0.51638 -0.23158,-1.6864 -2.15145,-1.2863 -1.87248,1.66845 -1.66783,-0.32168 -0.20458,0.87353 -1.92346,-3.17964 -1.49296,-2.18731 1.88512,2.28303 -2.87417,-4.87056 0.27103,0.13261 c -0.46456,0.60156 -1.0511,1.12364 -1.54179,1.70389 -0.59475,0.50547 -2.6896,4.39016 -3.19826,4.94391 -1.7063,3.2508 -0.95507,1.49414 -0.95507,1.49414 -0.95508,1.49414 1.10119,-0.26049 1.10119,-0.26049 0.38065,0.52393 -3.10724,0.30946 -3.79424,0.82033 -2.14665,-0.76124 -1.01384,0.69879 -1.4091,0.98793 -0.76867,0.50952 -1.10045,0.73251 -1.65645,1.10873 -0.55866,0.30827 -0.88634,0.4694 -1.63668,0.90935 -0.22536,-0.0162 -2.05309,4.15181 -3.00775,4.68328 -0.64938,0.36151 -3.06737,-3.54365 -3.76673,-3.22456 l 1.29709,4.13792 0.93457,-0.043 0.70359,1.28871 0.80469,-2.07731 3.18837,7.09455 -1.17248,2.53174 0.0584,-9.8e-4 0.0189,-0.15198 -0.61547,2.60898 2.48512,0.40175 1.14441,-0.0394 -1.40768,1.42724 5.7344,-3.44557 2.05518,-2.38085 -0.22654,1.37834 -0.63965,1.78608 2.68259,2.39053 -3.67258,-4.03452 0.74229,0.092 0.42104,0.10496 2.26125,2.57243 -0.30029,1.79175 -0.0769,-0.20508 1.68695,-0.60297 1.6118,-1.79736 -3.34958,2.88205 1.3712,0.005 -3.48328,2.81702 2.15924,-2.52087 0.13605,-0.58362 -2.91005,-0.0669 -2.60254,2.40235 -0.66821,0.52221 -1.39453,-2.3789 0.5094,0.60736 0.7538,1.38829 -1.25868,0.40879 -1.36735,0.60489 -0.31104,0.25251 -1.64374,1.3497 -1.74988,1.09577 -1.53723,0.91298 0.0237,-0.0422 -1.0934,-0.86543 -1.49025,-0.60784 2.06763,3.64206 -0.9737,-4.28721 -6.64328,-1.21159 -0.32155,4.43914 1.43171,-0.14042 -1.56203,-1.62058 -1.194766,-1.43372 1.822876,-1.27935 0.3396,0.0914 -1.759766,-1.46094 0.904136,0.91289 -2.131226,1.11956 1.544776,0.87922 -1.859245,-4.49187 1.024125,1.51945 1.47858,-0.96478 -0.43661,1.23049 1.43662,0.14263 2.67802,-1.59732 0.6626,1.12353 0.12304,-0.0555 -0.50332,-0.2102 1.37599,-0.33921 2.04557,-2.76347 0.13338,2.78526 -2.55437,-0.41818 -0.25131,-2.80444 -0.55709,-1.32669 -1.12678,-2.29737 -0.18226,-0.55283 2.47697,-0.67931 -0.61989,-0.25801 -2.90553,-5.36149 2.34178,-3.35743 -3.59585,-0.0319 c -0.27466,0.24083 -0.5328,1.30804 -0.82214,1.51122 -0.15674,0.97298 -3.123341,1.19654 -3.309797,1.30222 -2.758667,0.95361 0.09375,-0.13989 0.09375,-0.13989 0.09375,-0.13989 0.164794,0.50098 0.164794,0.50098 0.08168,0.54808 1.165358,0.0138 1.086548,0.0541 0.278474,0.46067 -2.076006,1.50562 -3.095683,1.31162 -0.547976,0.90939 -1.29724,-0.30792 -1.812775,-0.62412 -0.525409,-0.0472 0.935523,-0.59926 0.756042,-0.72869 1.015239,-0.56268 -0.907404,-0.14305 -1.645814,-0.16632 -0.429537,-0.0135 -0.357194,-0.24341 -0.612015,-0.24341 -0.363506,0 1.54324,0.097 1.169647,0.0896 1.312311,0.0815 -1.230855,-1.03366 -2.494787,-1.11551 0.270081,-1.00362 -0.196908,0.69395 -0.92606,0.70148 0.457215,0.75176 -1.968439,-0.11448 -2.781846,-0.15752 -0.717639,-0.11146 0.93179,2.17056 0.713685,2.15725 0.463847,2.13928 -2.02082,-0.50458 -3.081934,-1.00597 -0.34903,-0.18638 2.066897,1.95848 1.749699,1.79653 1.968342,1.89166 -4.316033,-4.6381 -5.670954,-5.56816 -2.55624,-3.50486 0.951012,-0.83821 0.894812,-0.60579 -0.0037,0.0152 -0.962719,2.86192 -0.975776,2.85885 l -1.317865,0.86921 0.484141,0.59587 3.392601,-3.24442 -2.472881,2.06694 -1.491896,-0.0542 1.697025,2.25402 2.336301,-0.58254 -1.842006,-3.55389 -0.613914,1.34693 z"
         id="path836-3-7"
         sodipodi:nodetypes="ccccccccccccccccccscccccccccccccccccccccccccccccccccccccccccccccsccccccccccccccccccccc"
         inkscape:connector-curvature="0"
         inkscape:path-effect="#path-effect4598"
         inkscape:original-d="m 81.059301,145.37934 -5.316311,14.61003 6.857091,2.49578 -1.702447,4.67748 -10.409431,-3.78873 -10.409424,-3.78871 1.70246,-4.67747 6.857092,2.49577 5.292652,-14.5705 c -6.975721,-3.18273 -12.943284,-8.17166 -17.383614,-14.36353 l -13.49784,7.75554 3.64858,6.31952 -4.31079,2.48884 -5.53873,-9.59338 -5.53874,-9.59337 4.3108,-2.48884 3.64857,6.31952 13.48843,-7.77414 c -2.45055,-5.47602 -3.85897,-11.54528 -3.85897,-17.94349 0,-1.10753 0.0422,-2.20521 0.11895,-3.30385 l -15.26143,-2.702232 -1.26713,7.186282 -4.90205,-0.86436 1.92358,-10.909172 1.92359,-10.90918 4.90204,0.86437 -1.26713,7.18629 15.22217,2.70801 c 1.96616,-7.70384 6.07335,-14.578343 11.66224,-19.967243 l -9.93259,-11.87645 -5.58993,4.69053 -3.19959,-3.81311 8.48584,-7.12047 8.48583,-7.12047 3.1996,3.81312 -5.58995,4.69053 9.98831,11.91922 c 5.837013,-3.84772 12.65181,-6.36369 20.00037,-7.022 l -0.0018,-15.54011 h -7.29716 v -4.97767 h 11.077475 11.077476 v 4.97767 h -7.297161 l -0.0018,15.54011 c 7.348561,0.65831 14.163361,3.17428 20.000381,7.022 l 9.9883,-11.91922 -5.58995,-4.69053 3.1996,-3.81312 8.48583,7.12047 8.48584,7.12047 -3.1996,3.81311 -5.58993,-4.69053 -9.93259,11.87645 c 5.58889,5.3889 9.69609,12.263403 11.66224,19.967243 l 15.22218,-2.70801 -1.26713,-7.1863 4.90204,-0.86436 1.92358,10.90918 1.92359,10.909172 -4.90205,0.86436 -1.26714,-7.186292 -15.26143,2.702252 c 0.0767,1.09863 0.11895,2.19631 0.11895,3.30384 0,6.39821 -1.40842,12.46747 -3.85897,17.94349 l 13.48844,7.77414 3.64857,-6.31952 4.31079,2.48884 -5.53873,9.59337 -5.53874,9.59338 -4.31079,-2.48884 3.64858,-6.31952 -13.49783,-7.75554 c -4.44034,6.19187 -10.40789,11.1808 -17.38362,14.36353 l 5.29266,14.5705 6.85708,-2.49577 1.70247,4.67747 -10.40942,3.78871 -10.40944,3.78873 -1.70245,-4.67748 6.85709,-2.49578 -5.31631,-14.61003 c -3.372765,0.79407 -6.88552,1.24441 -10.520576,1.24441 -3.635056,0 -7.147812,-0.45034 -10.520579,-1.24441 z" />
      <path
         id="path1166"
         style="fill:#ff0000;fill-opacity:0.6981132;stroke:#9c0000;stroke-width:1.76499999;stroke-miterlimit:4;stroke-dasharray:none;stroke-opacity:1"
         d="M 91.524103,15.286991 A 88.758291,88.758291 0 0 0 2.821505,104.04538 88.758291,88.758291 0 0 0 91.579903,192.80327 88.758291,88.758291 0 0 0 180.33832,104.04538 88.758291,88.758291 0 0 0 91.579903,15.286991 a 88.758291,88.758291 0 0 0 -0.0558,0 z m 0.0558,21.06073 a 67.69741,67.69741 0 0 1 67.697687,67.697659 67.69741,67.69741 0 0 1 -13.37386,40.396 L 51.183935,49.721581 A 67.69741,67.69741 0 0 1 91.579903,36.347721 Z M 37.256105,63.649411 131.9759,158.36921 A 67.69741,67.69741 0 0 1 91.579903,171.74254 67.69741,67.69741 0 0 1 23.882745,104.04538 67.69741,67.69741 0 0 1 37.256105,63.649411 Z"
         inkscape:connector-curvature="0" />
    </g>
  </g>
</svg>
