<?xml version="1.0" encoding="UTF-8" standalone="no"?>
<svg
   xmlns:dc="http://purl.org/dc/elements/1.1/"
   xmlns:cc="http://creativecommons.org/ns#"
   xmlns:rdf="http://www.w3.org/1999/02/22-rdf-syntax-ns#"
   xmlns:svg="http://www.w3.org/2000/svg"
   xmlns="http://www.w3.org/2000/svg"
   xmlns:xlink="http://www.w3.org/1999/xlink"
   xmlns:sodipodi="http://sodipodi.sourceforge.net/DTD/sodipodi-0.dtd"
   xmlns:inkscape="http://www.inkscape.org/namespaces/inkscape"
   width="210mm"
   height="297mm"
   viewBox="0 0 210 297"
   version="1.1"
   id="svg8"
   inkscape:version="0.92.5 (2060ec1f9f, 2020-04-08)"
   sodipodi:docname="CoroNo0.svg">
  <defs
     id="defs2">
    <inkscape:path-effect
       effect="fillet_chamfer"
       id="path-effect1269"
       is_visible="true"
       lpeversion="1"
       satellites_param="F,0,0,1,0,2.1166667,0,1 @ F,0,0,1,0,2.1166667,0,1 @ F,0,0,1,0,2.1166667,0,1 @ F,0,0,1,0,2.1166667,0,1 @ F,0,0,1,0,2.1166667,0,1 @ F,0,0,1,0,2.1166667,0,1 @ F,0,0,1,0,2.1166667,0,1 @ F,0,0,1,0,2.1166667,0,1 @ F,0,0,1,0,2.1166667,0,1 @ F,0,0,1,0,2.1166667,0,1 @ F,0,0,1,0,2.1166667,0,1 @ F,0,0,1,0,2.1166667,0,1 @ F,0,0,1,0,2.1166667,0,1 @ F,0,0,1,0,2.1166667,0,1 @ F,0,0,1,0,2.1166667,0,1 @ F,0,0,1,0,2.1166667,0,1 @ F,0,0,1,0,2.1166667,0,1 @ F,0,0,1,0,2.1166667,0,1 @ F,0,0,1,0,2.1166667,0,1 @ F,0,0,1,0,2.1166667,0,1 @ F,0,0,1,0,2.1166667,0,1 @ F,0,0,1,0,2.1166667,0,1 @ F,0,0,1,0,2.1166667,0,1 @ F,0,0,1,0,2.1166667,0,1 @ F,0,0,1,0,2.1166667,0,1 @ F,0,0,1,0,2.1166667,0,1 @ F,0,0,1,0,2.1166667,0,1 @ F,0,0,1,0,2.1166667,0,1 @ F,0,0,1,0,2.1166667,0,1 @ F,0,0,1,0,2.1166667,0,1 @ F,0,0,1,0,2.1166667,0,1 @ F,0,0,1,0,2.1166667,0,1 @ F,0,0,1,0,2.1166667,0,1 @ F,0,0,1,0,2.1166667,0,1 @ F,0,0,1,0,2.1166667,0,1 @ F,0,0,1,0,2.1166667,0,1 @ F,0,0,1,0,2.1166667,0,1 @ F,0,0,1,0,2.1166667,0,1 @ F,0,0,1,0,2.1166667,0,1 @ F,0,0,1,0,2.1166667,0,1 @ F,0,0,1,0,2.1166667,0,1 @ F,0,0,1,0,2.1166667,0,1 @ F,0,0,1,0,2.1166667,0,1 @ F,0,0,1,0,2.1166667,0,1 @ F,0,0,1,0,2.1166667,0,1 @ F,0,0,1,0,2.1166667,0,1 @ F,0,0,1,0,2.1166667,0,1 @ F,0,0,1,0,2.1166667,0,1 @ F,0,0,1,0,2.1166667,0,1 @ F,0,0,1,0,2.1166667,0,1 @ F,0,0,1,0,2.1166667,0,1 @ F,0,0,1,0,2.1166667,0,1 @ F,0,0,1,0,2.1166667,0,1 @ F,0,0,1,0,2.1166667,0,1 @ F,0,0,1,0,2.1166667,0,1 @ F,0,0,1,0,2.1166667,0,1 @ F,0,0,1,0,2.1166667,0,1 @ F,0,0,1,0,2.1166667,0,1 @ F,0,0,1,0,2.1166667,0,1 @ F,0,0,1,0,2.1166667,0,1 @ F,0,0,1,0,2.1166667,0,1 @ F,0,0,1,0,2.1166667,0,1 @ F,0,0,1,0,2.1166667,0,1 @ F,0,0,1,0,2.1166667,0,1 @ F,0,0,1,0,2.1166667,0,1 @ F,0,0,1,0,2.1166667,0,1 @ F,0,0,1,0,2.1166667,0,1 @ F,0,0,1,0,2.1166667,0,1 @ F,0,0,1,0,2.1166667,0,1 @ F,0,0,1,0,2.1166667,0,1 @ F,0,0,1,0,2.1166667,0,1 @ F,0,0,1,0,2.1166667,0,1 @ F,0,0,1,0,2.1166667,0,1 @ F,0,0,1,0,2.1166667,0,1 @ F,0,0,1,0,2.1166667,0,1 @ F,0,0,1,0,2.1166667,0,1 @ F,0,0,1,0,2.1166667,0,1 @ F,0,0,1,0,2.1166667,0,1 @ F,0,0,1,0,2.1166667,0,1 @ F,0,0,1,0,2.1166667,0,1 @ F,0,0,1,0,2.1166667,0,1 @ F,0,0,1,0,2.1166667,0,1 @ F,0,0,1,0,2.1166667,0,1 @ F,0,0,1,0,2.1166667,0,1 @ F,0,0,1,0,2.1166667,0,1"
       unit="px"
       method="auto"
       mode="F"
       radius="8"
       chamfer_steps="1"
       flexible="false"
       use_knot_distance="true"
       apply_no_radius="true"
       apply_with_radius="true"
       only_selected="false"
       hide_knots="false" />
    <linearGradient
       inkscape:collect="always"
       id="linearGradient1162-7">
      <stop
         style="stop-color:#2029df;stop-opacity:0.48113209"
         offset="0"
         id="stop1158" />
      <stop
         style="stop-color:#2029df;stop-opacity:1"
         offset="1"
         id="stop1160" />
    </linearGradient>
    <radialGradient
       inkscape:collect="always"
       xlink:href="#linearGradient1162-7"
       id="radialGradient1164"
       cx="82.626816"
       cy="121.93221"
       fx="82.626816"
       fy="121.93221"
       r="64.140633"
       gradientTransform="matrix(1,0,0,0.98659719,11.464353,-16.641261)"
       gradientUnits="userSpaceOnUse" />
  </defs>
  <sodipodi:namedview
     id="base"
     pagecolor="#ffffff"
     bordercolor="#666666"
     borderopacity="1.0"
     inkscape:pageopacity="0.0"
     inkscape:pageshadow="2"
     inkscape:zoom="0.49497475"
     inkscape:cx="-215.96398"
     inkscape:cy="608.11634"
     inkscape:document-units="mm"
     inkscape:current-layer="g855"
     inkscape:document-rotation="0"
     showgrid="false"
     inkscape:window-width="1920"
     inkscape:window-height="1029"
     inkscape:window-x="0"
     inkscape:window-y="0"
     inkscape:window-maximized="1" />
  <metadata
     id="metadata5">
    <rdf:RDF>
      <cc:Work
         rdf:about="">
        <dc:format>image/svg+xml</dc:format>
        <dc:type
           rdf:resource="http://purl.org/dc/dcmitype/StillImage" />
        <dc:title></dc:title>
      </cc:Work>
    </rdf:RDF>
  </metadata>
  <g
     inkscape:label="Layer 1"
     inkscape:groupmode="layer"
     id="layer1">
    <g
       id="g855">
      <path
         style="fill:url(#radialGradient1164);fill-opacity:1;stroke:#2029df;stroke-width:2.155;stroke-linecap:butt;stroke-linejoin:miter;stroke-opacity:1;stroke-miterlimit:4;stroke-dasharray:none"
         d="m 80.335515,147.36841 -3.868739,10.63189 a 2.1168345,2.1168345 64.997751 0 0 1.26523,2.71301 l 2.879059,1.0479 a 2.1166741,2.1166741 64.999922 0 1 1.26508,2.71296 l -0.254575,0.69944 a 2.1166589,2.1166589 154.99993 0 1 -2.712952,1.26508 l -6.431399,-2.34085 a 2859481,2859481 19.999991 0 0 -3.978033,-1.44788 l -6.43139,-2.34083 a 2.1166648,2.1166648 64.999975 0 1 -1.265074,-2.71296 l 0.254574,-0.69943 a 2.1166688,2.1166688 154.99997 0 1 2.71296,-1.26508 l 2.879058,1.04789 a 2.1153121,2.1153121 154.98161 0 0 2.711684,-1.26554 l 3.847318,-10.59154 c 0.399118,-1.09876 -0.142369,-2.3782 -1.180534,-2.91533 -5.530911,-2.86158 -10.360191,-6.88627 -14.206722,-11.74737 -0.725322,-0.91663 -2.095377,-1.21819 -3.108979,-0.6358 l -9.827264,5.64652 a 2.1122616,2.1122616 105.05966 0 0 -0.776954,2.8876 l 1.531912,2.65334 a 2.1166674,2.1166674 104.99997 0 1 -0.774752,2.89142 l -0.644618,0.37218 a 2.1166634,2.1166634 15.000002 0 1 -2.891418,-0.77476 l -3.422066,-5.9272 a 3432926.1,3432926.1 60.000012 0 0 -2.116666,-3.66618 l -3.422072,-5.92719 a 2.1166653,2.1166653 105 0 1 0.774753,-2.89142 l 0.644626,-0.37218 a 2.1166656,2.1166656 15.00003 0 1 2.891419,0.77476 l 1.531906,2.65334 a 2.1182444,2.1182444 15.02139 0 0 2.892208,0.77612 l 9.820678,-5.6602 c 1.012822,-0.58375 1.44173,-1.92039 1.014926,-3.00858 -1.698671,-4.33095 -2.750991,-8.9968 -2.988571,-13.87605 -0.05685,-1.1675 -0.05567,-3.06407 -0.0017,-4.23172 0.03037,-0.65652 -0.863989,-1.35319 -2.015087,-1.557 L 35.840446,98.322621 a 2.1151553,2.1151553 145.02042 0 0 -2.451801,1.715469 l -0.532022,3.01726 a 2.1166667,2.1166667 144.99996 0 1 -2.452064,1.71696 l -0.73303,-0.12926 a 2.1166654,2.1166654 54.999976 0 1 -1.716955,-2.45206 l 1.18847,-6.740152 1.923588,-10.90918 a 2.1166647,2.1166647 145.00006 0 1 2.452066,-1.716951 l 0.733022,0.129252 a 2.116672,2.116672 55.000019 0 1 1.716956,2.452069 l -0.532024,3.01727 a 2.1198975,2.1198975 55.043641 0 0 1.716394,2.455242 l 11.054276,1.966546 c 1.150932,0.20475 2.313049,-0.549586 2.659316,-1.665996 1.920685,-6.192532 5.241856,-11.788012 9.599858,-16.424472 0.800554,-0.851707 0.87905,-2.232987 0.12909,-3.129719 l -7.216744,-8.629098 a 2.1132154,2.1132154 5.0466178 0 0 -2.979381,-0.263105 l -2.347014,1.969388 a 2.1166654,2.1166654 4.9998868 0 1 -2.982028,-0.260888 l -0.47845,-0.570192 a 2.1166639,2.1166639 94.999943 0 1 0.26089,-2.982027 l 5.24292,-4.399334 8.48583,-7.120469 a 2.1166688,2.1166688 4.9999192 0 1 2.98203,0.260889 l 0.47846,0.570204 a 2.1166638,2.1166638 94.99993 0 1 -0.26089,2.982026 l -2.34703,1.969394 a 2.1180345,2.1180345 95.018476 0 0 -0.26194,2.982907 l 7.26927,8.674542 c 0.750842,0.895993 2.148354,1.095984 3.153883,0.499981 4.842606,-2.870341 10.287042,-4.847472 16.103287,-5.658946 1.157671,-0.161517 2.10261,-1.18836 2.102475,-2.357363 l -0.0013,-11.306776 a 2.1169119,2.1169119 44.996682 0 0 -2.116912,-2.116667 l -3.063826,0 a 2.1166667,2.1166667 45 0 1 -2.116667,-2.116667 v -0.744336 a 2.1166667,2.1166667 135 0 1 2.116667,-2.116667 h 6.844141 11.077473 a 2.1166667,2.1166667 45 0 1 2.11667,2.116667 v 0.744336 a 2.1166667,2.1166667 135 0 1 -2.11667,2.116667 h -3.063824 a 2.1169119,2.1169119 135.00332 0 0 -2.116912,2.116667 l -0.0013,11.306776 c -1.35e-4,1.169003 0.944805,2.195846 2.102476,2.357363 5.81625,0.811475 11.26069,2.788606 16.1033,5.658947 1.00553,0.596003 2.40304,0.396011 3.15388,-0.499982 l 7.26926,-8.674542 a 2.1180355,2.1180355 84.98151 0 0 -0.26194,-2.982907 l -2.34703,-1.969394 a 2.1166638,2.1166638 85.00007 0 1 -0.26089,-2.982026 l 0.47846,-0.570204 a 2.1166688,2.1166688 175.00008 0 1 2.98203,-0.260889 l 5.24291,4.399332 8.48584,7.120471 a 2.1166606,2.1166606 85.000101 0 1 0.26089,2.982024 l -0.47846,0.570198 a 2.1166686,2.1166686 175.00016 0 1 -2.98203,0.260885 l -2.34701,-1.969388 a 2.1132154,2.1132154 174.95338 0 0 -2.97938,0.263105 l -7.21675,8.629098 c -0.74996,0.896732 -0.67146,2.278012 0.12909,3.129719 4.35801,4.63646 7.67918,10.23194 9.59986,16.424472 0.34627,1.11641 1.50838,1.870746 2.65932,1.665996 l 11.05428,-1.966546 a 2.1198978,2.1198978 124.95637 0 0 1.7164,-2.455242 l -0.53203,-3.01728 a 2.1166684,2.1166684 125.00004 0 1 1.71696,-2.452065 l 0.73302,-0.12925 a 2.116667,2.116667 35.000018 0 1 2.45206,1.716955 l 1.18848,6.74016 a 4173134.5,4173134.5 79.999985 0 0 0.73511,4.169019 l 1.18847,6.740153 a 2.1166635,2.1166635 125 0 1 -1.71695,2.45206 l -0.73303,0.12926 a 2.116669,2.116669 35.00001 0 1 -2.45207,-1.71696 l -0.53202,-3.01727 a 2.115155,2.115155 34.97951 0 0 -2.45181,-1.715467 l -11.09293,1.964157 c -1.1511,0.20382 -2.0124,1.31455 -1.98128,2.48305 0.0175,0.65697 0.0214,2.13817 -0.0355,3.30567 -0.23758,4.87925 -1.2899,9.5451 -2.98857,13.87605 -0.4268,1.08819 0.002,2.42483 1.01493,3.00858 l 9.82068,5.6602 a 2.1182451,2.1182451 164.9786 0 0 2.89221,-0.77612 l 1.53191,-2.65334 a 2.1166635,2.1166635 165 0 1 2.89142,-0.77476 l 0.64461,0.37218 a 2.116669,2.116669 75.00001 0 1 0.77476,2.89142 l -3.42207,5.92719 -5.53874,9.59338 a 2.1166651,2.1166651 165.00002 0 1 -2.89142,0.77476 l -0.64461,-0.37218 a 2.1166674,2.1166674 75.000033 0 1 -0.77476,-2.89142 l 1.53192,-2.65334 a 2.1122623,2.1122623 74.94035 0 0 -0.77696,-2.8876 l -9.82725,-5.64652 c -1.0136,-0.58239 -2.38366,-0.28083 -3.10898,0.6358 -3.84654,4.8611 -8.67581,8.88579 -14.20673,11.74737 -1.03816,0.53713 -1.57965,1.81657 -1.18053,2.91533 l 3.84732,10.59154 a 2.115312,2.115312 25.018364 0 0 2.71169,1.26554 l 2.87904,-1.04789 a 2.1166716,2.1166716 24.999956 0 1 2.71297,1.26507 l 0.25457,0.69945 a 2.116661,2.116661 114.99997 0 1 -1.26507,2.71295 l -6.43138,2.34083 a 3923106.6,3923106.6 160.00001 0 0 -3.97804,1.44788 l -6.4314,2.34085 a 2.1166606,2.1166606 25.000064 0 1 -2.71296,-1.26508 l -0.25457,-0.69944 a 2.116673,2.116673 115.00006 0 1 1.26508,-2.71296 l 2.87905,-1.0479 a 2.1168347,2.1168347 115.00225 0 0 1.26523,-2.71301 l -3.86873,-10.63189 c -0.39974,-1.09853 -1.6456,-1.76681 -2.79404,-1.54904 -2.063382,0.39126 -4.176158,0.65022 -6.334474,0.75363 -1.167549,0.0559 -3.064156,0.0559 -4.231708,0 -2.158317,-0.10341 -4.271094,-0.36237 -6.334477,-0.75363 -1.148442,-0.21777 -2.070275,-0.44003 -2.07031,-0.44003 z"
         id="path836-3-7"
         sodipodi:nodetypes="ccccccccccccccccccscccccccccccccccccccccccccccccccccccccccccccccsccccccccccccccccccccc"
         inkscape:path-effect="#path-effect1269"
         inkscape:original-d="m 81.059301,145.37934 -5.316311,14.61003 6.857091,2.49578 -1.702447,4.67748 -10.409431,-3.78873 -10.409424,-3.78871 1.70246,-4.67747 6.857092,2.49577 5.292652,-14.5705 c -6.975721,-3.18273 -12.943284,-8.17166 -17.383614,-14.36353 l -13.49784,7.75554 3.64858,6.31952 -4.31079,2.48884 -5.53873,-9.59338 -5.53874,-9.59337 4.3108,-2.48884 3.64857,6.31952 13.48843,-7.77414 c -2.45055,-5.47602 -3.85897,-11.54528 -3.85897,-17.94349 0,-1.10753 0.0422,-2.20521 0.11895,-3.30385 l -15.26143,-2.702232 -1.26713,7.186282 -4.90205,-0.86436 1.92358,-10.909172 1.92359,-10.90918 4.90204,0.86437 -1.26713,7.18629 15.22217,2.70801 c 1.96616,-7.70384 6.07335,-14.578343 11.66224,-19.967243 l -9.93259,-11.87645 -5.58993,4.69053 -3.19959,-3.81311 8.48584,-7.12047 8.48583,-7.12047 3.1996,3.81312 -5.58995,4.69053 9.98831,11.91922 c 5.837013,-3.84772 12.65181,-6.36369 20.00037,-7.022 l -0.0018,-15.54011 h -7.29716 v -4.97767 h 11.077475 11.077476 v 4.97767 h -7.297161 l -0.0018,15.54011 c 7.348561,0.65831 14.163361,3.17428 20.000381,7.022 l 9.9883,-11.91922 -5.58995,-4.69053 3.1996,-3.81312 8.48583,7.12047 8.48584,7.12047 -3.1996,3.81311 -5.58993,-4.69053 -9.93259,11.87645 c 5.58889,5.3889 9.69609,12.263403 11.66224,19.967243 l 15.22218,-2.70801 -1.26713,-7.1863 4.90204,-0.86436 1.92358,10.90918 1.92359,10.909172 -4.90205,0.86436 -1.26714,-7.186292 -15.26143,2.702252 c 0.0767,1.09863 0.11895,2.19631 0.11895,3.30384 0,6.39821 -1.40842,12.46747 -3.85897,17.94349 l 13.48844,7.77414 3.64857,-6.31952 4.31079,2.48884 -5.53873,9.59337 -5.53874,9.59338 -4.31079,-2.48884 3.64858,-6.31952 -13.49783,-7.75554 c -4.44034,6.19187 -10.40789,11.1808 -17.38362,14.36353 l 5.29266,14.5705 6.85708,-2.49577 1.70247,4.67747 -10.40942,3.78871 -10.40944,3.78873 -1.70245,-4.67748 6.85709,-2.49578 -5.31631,-14.61003 c -3.372765,0.79407 -6.88552,1.24441 -10.520576,1.24441 -3.635056,0 -7.147812,-0.45034 -10.520579,-1.24441 z" />
      <path
         id="path1166"
         style="fill:#ff0000;fill-opacity:0.7028302;stroke:#c23838;stroke-width:1.765;stroke-opacity:1;stroke-miterlimit:4;stroke-dasharray:none"
         d="M 91.524103,15.286991 A 88.758291,88.758291 0 0 0 2.821505,104.04538 88.758291,88.758291 0 0 0 91.579903,192.80327 88.758291,88.758291 0 0 0 180.33832,104.04538 88.758291,88.758291 0 0 0 91.579903,15.286991 a 88.758291,88.758291 0 0 0 -0.0558,0 z m 0.0558,21.06073 a 67.69741,67.69741 0 0 1 67.697687,67.697659 67.69741,67.69741 0 0 1 -13.37386,40.396 L 51.183933,49.721581 a 67.69741,67.69741 0 0 1 40.39597,-13.37386 z m -54.3238,27.30169 94.719797,94.719799 A 67.69741,67.69741 0 0 1 91.579903,171.74254 67.69741,67.69741 0 0 1 23.882741,104.04538 67.69741,67.69741 0 0 1 37.256103,63.649411 Z" />
    </g>
  </g>
</svg>
