<?xml version="1.0" encoding="UTF-8" standalone="no"?>
<svg
   xmlns:dc="http://purl.org/dc/elements/1.1/"
   xmlns:cc="http://creativecommons.org/ns#"
   xmlns:rdf="http://www.w3.org/1999/02/22-rdf-syntax-ns#"
   xmlns:svg="http://www.w3.org/2000/svg"
   xmlns="http://www.w3.org/2000/svg"
   xmlns:sodipodi="http://sodipodi.sourceforge.net/DTD/sodipodi-0.dtd"
   xmlns:inkscape="http://www.inkscape.org/namespaces/inkscape"
   width="8.1211805mm"
   height="8.2458782mm"
   viewBox="0 0 8.1211809 8.245878"
   version="1.1"
   id="svg1522"
   inkscape:version="1.0.1 (0767f8302a, 2020-10-17)"
   sodipodi:docname="norona_virus.svg"
   inkscape:export-filename="/home/korbip/Nextcloud/Norona/design/NOrona_logo_final.png"
   inkscape:export-xdpi="600"
   inkscape:export-ydpi="600">
  <defs
     id="defs1516" />
  <sodipodi:namedview
     id="base"
     pagecolor="#ffffff"
     bordercolor="#666666"
     borderopacity="1.0"
     inkscape:pageopacity="0.0"
     inkscape:pageshadow="2"
     inkscape:zoom="2.8"
     inkscape:cx="85.375728"
     inkscape:cy="-55.386919"
     inkscape:document-units="mm"
     inkscape:current-layer="g6243-0-0-2-33"
     showgrid="false"
     fit-margin-top="0"
     fit-margin-left="0"
     fit-margin-right="0"
     fit-margin-bottom="0"
     inkscape:window-width="1866"
     inkscape:window-height="1016"
     inkscape:window-x="54"
     inkscape:window-y="27"
     inkscape:window-maximized="1"
     inkscape:document-rotation="0" />
  <metadata
     id="metadata1519">
    <rdf:RDF>
      <cc:Work
         rdf:about="">
        <dc:format>image/svg+xml</dc:format>
        <dc:type
           rdf:resource="http://purl.org/dc/dcmitype/StillImage" />
        <dc:title></dc:title>
      </cc:Work>
    </rdf:RDF>
  </metadata>
  <g
     inkscape:label="Layer 1"
     inkscape:groupmode="layer"
     id="layer1"
     transform="translate(-126.75083,-72.138966)">
    <g
       transform="matrix(0.0020891,0,0,0.00216792,114.23735,26.189368)"
       style="display:inline"
       id="g6243-0-0-2-33">
      <g
         id="g2868-15-8-6-4-8"
         transform="matrix(170.21376,0,0,164.02497,-78234.987,-56965.978)">
        <g
           id="g3660-1-3-5-5-2"
           transform="translate(2.3361234,12.401173)">
          <g
             id="g5951-5-0-1-8">
            <path
               inkscape:connector-curvature="0"
               class="cls-14"
               d="m 512.15213,479.90307 -2.28,-1.32 a 7.5,7.5 0 0 0 0.65,-3 5.33,5.33 0 0 0 0,-0.56 l 2.59,-0.45 0.21,1.21 0.83,-0.14 -0.32,-1.85 -0.33,-1.85 -0.83,0.15 0.21,1.22 -2.57,0.45 a 7.25,7.25 0 0 0 -2,-3.38 l 1.68,-2 0.95,0.8 0.54,-0.65 -1.43,-1.2 -1.44,-1.21 -0.54,0.65 0.94,0.79 -1.69,2 a 7.34,7.34 0 0 0 -3.38,-1.19 v -2.7 h 1.23 v -0.85 h -3.75 v 0.85 h 1.24 v 2.63 a 7.33,7.33 0 0 0 -3.39,1.19 l -1.69,-2 0.95,-0.79 -0.55,-0.65 -1.43,1.21 -1.44,1.2 0.54,0.65 1,-0.8 1.68,2 a 7.15,7.15 0 0 0 -2,3.38 l -2.58,-0.45 0.21,-1.22 -0.83,-0.15 -0.32,1.85 -0.33,1.85 0.83,0.14 0.22,-1.21 2.58,0.45 c 0,0.19 0,0.38 0,0.56 a 7.5,7.5 0 0 0 0.65,3 l -2.28,1.32 -0.62,-1.07 -0.73,0.42 0.94,1.62 0.94,1.63 0.73,-0.42 -0.62,-1.07 2.28,-1.32 a 7.52,7.52 0 0 0 2.95,2.44 l -0.9,2.46 -1.16,-0.42 -0.29,0.79 1.76,0.64 1.77,0.64 0.29,-0.79 -1.17,-0.42 0.9,-2.47 v 0 a 8.12,8.12 0 0 0 1.79,0.21 8,8 0 0 0 1.78,-0.21 l 0.9,2.47 -1.16,0.42 0.28,0.79 1.77,-0.64 1.76,-0.64 -0.29,-0.79 -1.16,0.42 -0.9,-2.46 a 7.38,7.38 0 0 0 3,-2.44 l 2.28,1.32 -0.61,1.07 0.73,0.42 0.93,-1.63 0.94,-1.62 -0.73,-0.42 z m -11.42,-5.66 a 1.52,1.52 0 1 1 1.52,1.5 1.51,1.51 0 0 1 -1.52,-1.5 z m 2.64,6.22 c -0.95,0 -1.72,-0.51 -1.72,-1.13 0,-0.62 0.77,-1.14 1.72,-1.13 0.95,0.01 1.72,0.5 1.72,1.13 0,0.63 -0.77,1.13 -1.72,1.13 z m 4.43,-4.57 c -0.6,0.18 -1.3,-0.42 -1.57,-1.33 -0.27,-0.91 0,-1.79 0.6,-2 0.6,-0.21 1.3,0.42 1.57,1.33 0.27,0.91 0,1.83 -0.6,2 z"
               id="path1756-1-29-6-8-7-5"
               style="fill:#585858;fill-opacity:1" />
            <g
               transform="matrix(0.86337525,-0.84870451,0.84870451,0.86337525,-358.20266,472.53286)"
               id="g3350-5-1-5-8">
              <rect
                 style="opacity:1;fill:#c2ff86;fill-opacity:1;stroke:none;stroke-width:0.802676;stroke-miterlimit:4;stroke-dasharray:2.40803, 0.802676;stroke-dashoffset:1.51181;stroke-opacity:0.4375"
                 id="rect3249-9-2-7-0"
                 width="1.2211441"
                 height="19.963223"
                 x="505.39023"
                 y="490.55713" />
              <path
                 style="fill:#8bd839;fill-opacity:1;stroke-width:0.407778"
                 d="m 505.35041,510.22834 c -0.41939,0.22599 -0.40354,1.5867 -0.45713,2.18395 -0.0315,0.8677 0.17416,1.65377 1.12233,1.6206 0.853,-0.0313 1.09563,-0.71903 1.10409,-1.58558 -0.0476,-0.58607 -0.0784,-1.79314 -0.46329,-2.23763 -0.22595,0.0107 -0.60653,0.006 -0.71948,0.0134"
                 class="cls-38"
                 data-name="path820-4"
                 id="path820-4-9-7-0-6-3-9-2-1-8"
                 inkscape:connector-curvature="0"
                 sodipodi:nodetypes="cccccc" />
              <path
                 style="fill:#8bd839;fill-opacity:1;stroke-width:0.407778"
                 d="m 505.41729,491.96528 c -0.41939,-0.22599 -0.40354,-1.5867 -0.45713,-2.18395 -0.0315,-0.8677 0.17416,-1.65377 1.12233,-1.6206 0.853,0.0313 1.09563,0.71903 1.10409,1.58558 -0.0476,0.58607 -0.0784,1.79314 -0.46329,2.23763 -0.22595,-0.0107 -0.60653,-0.006 -0.71948,-0.0134"
                 class="cls-38"
                 data-name="path820-4"
                 id="path820-4-9-7-0-6-3-3-0-6-6-6"
                 inkscape:connector-curvature="0"
                 sodipodi:nodetypes="cccccc" />
            </g>
          </g>
        </g>
      </g>
    </g>
  </g>
</svg>
