<?xml version="1.0" encoding="UTF-8" standalone="no"?>
<svg
   xmlns:dc="http://purl.org/dc/elements/1.1/"
   xmlns:cc="http://creativecommons.org/ns#"
   xmlns:rdf="http://www.w3.org/1999/02/22-rdf-syntax-ns#"
   xmlns:svg="http://www.w3.org/2000/svg"
   xmlns="http://www.w3.org/2000/svg"
   xmlns:xlink="http://www.w3.org/1999/xlink"
   xmlns:sodipodi="http://sodipodi.sourceforge.net/DTD/sodipodi-0.dtd"
   xmlns:inkscape="http://www.inkscape.org/namespaces/inkscape"
   width="210mm"
   height="297mm"
   viewBox="0 0 210 297"
   version="1.1"
   id="svg8"
   inkscape:version="0.92.5 (2060ec1f9f, 2020-04-08)"
   sodipodi:docname="CoroNo5.svg"
   inkscape:export-filename="/home/korbip/Programming/Projects/noronatest.me/hans/static/images/CoroNo5_large.png"
   inkscape:export-xdpi="300"
   inkscape:export-ydpi="300">
  <defs
     id="defs2">
    <inkscape:path-effect
       effect="rough_hatches"
       id="path-effect829"
       is_visible="true"
       direction="93.718081,102.47079 , -4.5199037,1.6036169"
       dist_rdm="75;1"
       growth="0"
       do_bend="true"
       bender="91.579922,103.72902 , 5,0"
       bottom_edge_variation="12.567465;1"
       top_edge_variation="12.567465;1"
       bottom_tgt_variation="0;1"
       top_tgt_variation="0;1"
       scale_bf="1"
       scale_bb="1"
       scale_tf="0.7"
       scale_tb="1"
       top_smth_variation="0;1"
       bottom_smth_variation="0;1"
       fat_output="true"
       stroke_width_top="1"
       stroke_width_bottom="1"
       front_thickness="1"
       back_thickness="0.25" />
    <inkscape:path-effect
       effect="gears"
       id="path-effect827"
       is_visible="true"
       teeth="10"
       phi="5"
       min_radius="5" />
    <inkscape:path-effect
       effect="envelope"
       id="path-effect825"
       is_visible="true"
       yy="true"
       xx="true"
       bendpath1="M 27.922418,40.891695 H 155.23743"
       bendpath2="M 155.23743,40.891695 V 166.56634"
       bendpath3="M 27.922418,166.56634 H 155.23743"
       bendpath4="M 27.922418,40.891695 V 166.56634" />
    <inkscape:path-effect
       effect="bend_path"
       id="path-effect821"
       is_visible="true"
       bendpath="M 27.922418,103.72902 H 155.23743"
       prop_scale="1"
       scale_y_rel="false"
       vertical="false" />
    <inkscape:path-effect
       effect="fillet_chamfer"
       id="path-effect1269"
       is_visible="true"
       lpeversion="1"
       satellites_param="F,0,0,1,0,2.1166667,0,1 @ F,0,0,1,0,2.1166667,0,1 @ F,0,0,1,0,2.1166667,0,1 @ F,0,0,1,0,2.1166667,0,1 @ F,0,0,1,0,2.1166667,0,1 @ F,0,0,1,0,2.1166667,0,1 @ F,0,0,1,0,2.1166667,0,1 @ F,0,0,1,0,2.1166667,0,1 @ F,0,0,1,0,2.1166667,0,1 @ F,0,0,1,0,2.1166667,0,1 @ F,0,0,1,0,2.1166667,0,1 @ F,0,0,1,0,2.1166667,0,1 @ F,0,0,1,0,2.1166667,0,1 @ F,0,0,1,0,2.1166667,0,1 @ F,0,0,1,0,2.1166667,0,1 @ F,0,0,1,0,2.1166667,0,1 @ F,0,0,1,0,2.1166667,0,1 @ F,0,0,1,0,2.1166667,0,1 @ F,0,0,1,0,2.1166667,0,1 @ F,0,0,1,0,2.1166667,0,1 @ F,0,0,1,0,2.1166667,0,1 @ F,0,0,1,0,2.1166667,0,1 @ F,0,0,1,0,2.1166667,0,1 @ F,0,0,1,0,2.1166667,0,1 @ F,0,0,1,0,2.1166667,0,1 @ F,0,0,1,0,2.1166667,0,1 @ F,0,0,1,0,2.1166667,0,1 @ F,0,0,1,0,2.1166667,0,1 @ F,0,0,1,0,2.1166667,0,1 @ F,0,0,1,0,2.1166667,0,1 @ F,0,0,1,0,2.1166667,0,1 @ F,0,0,1,0,2.1166667,0,1 @ F,0,0,1,0,2.1166667,0,1 @ F,0,0,1,0,2.1166667,0,1 @ F,0,0,1,0,2.1166667,0,1 @ F,0,0,1,0,2.1166667,0,1 @ F,0,0,1,0,2.1166667,0,1 @ F,0,0,1,0,2.1166667,0,1 @ F,0,0,1,0,2.1166667,0,1 @ F,0,0,1,0,2.1166667,0,1 @ F,0,0,1,0,2.1166667,0,1 @ F,0,0,1,0,2.1166667,0,1 @ F,0,0,1,0,2.1166667,0,1 @ F,0,0,1,0,2.1166667,0,1 @ F,0,0,1,0,2.1166667,0,1 @ F,0,0,1,0,2.1166667,0,1 @ F,0,0,1,0,2.1166667,0,1 @ F,0,0,1,0,2.1166667,0,1 @ F,0,0,1,0,2.1166667,0,1 @ F,0,0,1,0,2.1166667,0,1 @ F,0,0,1,0,2.1166667,0,1 @ F,0,0,1,0,2.1166667,0,1 @ F,0,0,1,0,2.1166667,0,1 @ F,0,0,1,0,2.1166667,0,1 @ F,0,0,1,0,2.1166667,0,1 @ F,0,0,1,0,2.1166667,0,1 @ F,0,0,1,0,2.1166667,0,1 @ F,0,0,1,0,2.1166667,0,1 @ F,0,0,1,0,2.1166667,0,1 @ F,0,0,1,0,2.1166667,0,1 @ F,0,0,1,0,2.1166667,0,1 @ F,0,0,1,0,2.1166667,0,1 @ F,0,0,1,0,2.1166667,0,1 @ F,0,0,1,0,2.1166667,0,1 @ F,0,0,1,0,2.1166667,0,1 @ F,0,0,1,0,2.1166667,0,1 @ F,0,0,1,0,2.1166667,0,1 @ F,0,0,1,0,2.1166667,0,1 @ F,0,0,1,0,2.1166667,0,1 @ F,0,0,1,0,2.1166667,0,1 @ F,0,0,1,0,2.1166667,0,1 @ F,0,0,1,0,2.1166667,0,1 @ F,0,0,1,0,2.1166667,0,1 @ F,0,0,1,0,2.1166667,0,1 @ F,0,0,1,0,2.1166667,0,1 @ F,0,0,1,0,2.1166667,0,1 @ F,0,0,1,0,2.1166667,0,1 @ F,0,0,1,0,2.1166667,0,1 @ F,0,0,1,0,2.1166667,0,1 @ F,0,0,1,0,2.1166667,0,1 @ F,0,0,1,0,2.1166667,0,1 @ F,0,0,1,0,2.1166667,0,1 @ F,0,0,1,0,2.1166667,0,1 @ F,0,0,1,0,2.1166667,0,1 @ F,0,0,1,0,2.1166667,0,1"
       unit="px"
       method="auto"
       mode="F"
       radius="8"
       chamfer_steps="1"
       flexible="false"
       use_knot_distance="true"
       apply_no_radius="true"
       apply_with_radius="true"
       only_selected="false"
       hide_knots="false" />
    <linearGradient
       inkscape:collect="always"
       id="linearGradient1162-7">
      <stop
         style="stop-color:#2029df;stop-opacity:0.48113209"
         offset="0"
         id="stop1158" />
      <stop
         style="stop-color:#2029df;stop-opacity:1"
         offset="1"
         id="stop1160" />
    </linearGradient>
    <radialGradient
       inkscape:collect="always"
       xlink:href="#linearGradient1162-7"
       id="radialGradient1164"
       cx="82.626816"
       cy="121.93221"
       fx="82.626816"
       fy="121.93221"
       r="64.140633"
       gradientTransform="matrix(1,0,0,0.98659719,11.464353,-16.641261)"
       gradientUnits="userSpaceOnUse" />
  </defs>
  <sodipodi:namedview
     id="base"
     pagecolor="#ffffff"
     bordercolor="#666666"
     borderopacity="1.0"
     inkscape:pageopacity="0.0"
     inkscape:pageshadow="2"
     inkscape:zoom="0.9899495"
     inkscape:cx="14.480957"
     inkscape:cy="633.55524"
     inkscape:document-units="mm"
     inkscape:current-layer="g855"
     inkscape:document-rotation="0"
     showgrid="false"
     inkscape:window-width="1920"
     inkscape:window-height="1029"
     inkscape:window-x="0"
     inkscape:window-y="0"
     inkscape:window-maximized="1" />
  <metadata
     id="metadata5">
    <rdf:RDF>
      <cc:Work
         rdf:about="">
        <dc:format>image/svg+xml</dc:format>
        <dc:type
           rdf:resource="http://purl.org/dc/dcmitype/StillImage" />
        <dc:title />
      </cc:Work>
    </rdf:RDF>
  </metadata>
  <g
     inkscape:label="Layer 1"
     inkscape:groupmode="layer"
     id="layer1">
    <g
       id="g855">
      <path
         style="fill:url(#radialGradient1164);fill-opacity:1;stroke:#2029df;stroke-width:2.15499997;stroke-linecap:butt;stroke-linejoin:miter;stroke-miterlimit:4;stroke-dasharray:none;stroke-opacity:1"
         d="m 32.087699,126.50692 c 0,0 0.08861,0.0941 1.465225,2.47376 2.789294,4.82165 -0.573724,-5.08045 -0.308951,-5.22811 0.598925,-0.33399 4.873492,11.60374 6.101677,13.26254 1.186706,1.60279 0.165017,-2.45137 -1.229554,-6.95556 -1.395319,-4.5066 -3.160905,-9.44764 -3.3659,-9.63068 0.172988,0.15446 6.93381,19.704 7.400189,19.62368 0.988879,-0.17031 -3.864981,-14.59626 -3.654176,-14.54415 0.326458,0.0807 2.345665,5.41445 4.201289,10.31717 1.854559,4.8999 3.548946,9.3716 3.339321,7.71415 -0.810621,-6.40941 -2.227219,-10.59966 -1.930581,-10.77032 0.466493,-0.26838 1.319962,1.98002 1.786455,1.71163 0.435482,-0.25022 -1.140394,-6.9468 -1.575876,-6.69658 0.319317,-0.18398 1.524701,2.86105 1.844018,2.67707 0.531023,-0.30548 -0.830373,-7.13587 -1.361397,-6.83038 0.31853,-0.18375 2.371404,5.36537 2.689933,5.18163 0.56298,-0.32396 -1.610517,-6.69186 -1.047537,-7.01582 0.527644,-0.30445 2.27069,4.21042 2.798333,3.90596 0.581244,-0.33468 -0.768581,-7.18422 -1.349825,-6.84954 0.172007,-0.0993 5.335925,14.8925 5.562031,14.76272 0.455279,-0.26133 -1.383936,-6.80961 -1.839215,-6.54829 0.244755,-0.14087 2.387864,5.68178 2.632619,5.54091 0.946674,-0.54347 -1.358123,-7.26166 -1.452475,-7.11603 0.160551,-0.2478 1.354279,3.02603 1.627272,2.88806 0.343362,-0.17353 -1.008966,-4.73047 -2.209124,-8.37603 -1.243337,-3.77671 -2.197571,-6.24009 -1.204343,-2.88228 -0.26513,-0.89632 4.961439,14.15249 5.266036,14.11983 0.384854,-0.0413 -1.133738,-5.11846 -2.747432,-9.96062 -1.612198,-4.83767 -3.322225,-9.45204 -3.20076,-8.54518 -0.0059,-0.0441 5.612193,15.9453 6.063445,16.08069 0.51523,0.1546 -1.304841,-5.49708 -3.290193,-11.1844 -1.985338,-5.68728 -4.14091,-11.41491 -4.14091,-11.41491 0,0 1.775866,5.40324 3.533872,10.81078 1.757968,5.40743 3.502129,10.82346 3.577551,10.84609 -0.155984,-0.0468 -6.244858,-17.3578 -6.07304,-16.08069 0.42139,3.13214 5.751698,18.52805 5.959234,18.5058 -0.02429,0.003 -1.771192,-5.06428 -3.31434,-9.36335 -1.563365,-4.3554 -2.854497,-7.77401 -1.960122,-4.75648 4.150782,14.00432 3.155098,11.39232 3.420185,11.25831 -0.04653,0.0235 -1.294957,-3.40411 -1.628995,-2.88806 -0.594491,0.9184 1.498537,7.09201 1.456722,7.11603 -0.244519,0.14042 -2.391408,-5.68133 -2.635926,-5.54091 -0.433073,0.24935 1.41005,6.79763 1.843122,6.54828 -0.0037,0.002 -5.177786,-14.98973 -5.570839,-14.76271 -0.416678,0.24067 1.770589,6.60887 1.353912,6.84954 -0.527537,0.30386 -2.273127,-4.20982 -2.800664,-3.90596 -0.561168,0.32392 1.612892,6.6919 1.051724,7.01581 -0.318324,0.18324 -2.374702,-5.36486 -2.693025,-5.18162 -0.401069,0.23144 1.766541,6.59894 1.365472,6.83038 -0.319197,0.18369 -1.526419,-2.86076 -1.845615,-2.67707 -0.452912,0.26105 1.126959,6.95763 1.579871,6.69658 -0.466417,0.2681 -1.321058,-1.97972 -1.787476,-1.71163 -1.185244,0.68213 1.786394,9.58503 1.937008,10.77031 0.127114,1.00035 -1.497419,-3.44526 -3.300144,-8.17705 -1.802177,-4.73036 -3.780494,-9.73791 -4.251225,-9.85426 -1.350789,-0.33388 3.675243,14.54201 3.662854,14.54414 -0.215427,0.0371 -6.855639,-19.12726 -7.411898,-19.62367 -1.131026,-1.00934 5.049425,17.18553 4.605351,16.58624 -0.745847,-1.00654 -5.288171,-13.72076 -6.109591,-13.26254 -1.155461,0.64457 0.540711,5.62294 0.31207,5.22811 -0.736921,-1.27255 -1.145642,-1.53132 -1.145642,-1.53132 z m -3.215433,-22.18236 c 0,0 -0.550838,-3.04359 -0.643085,-2.52115 0.03973,-0.22498 -0.344305,-1.73487 0.182349,-1.64069 1.116684,0.19968 -1.012313,-5.734051 -0.949508,-6.09489 0.192266,-1.104638 3.670035,7.94539 4.095926,7.2532 0.824399,-1.339874 -2.398106,-10.290167 -2.282803,-10.947424 0.244887,-1.395925 5.142329,11.940584 5.372482,11.571464 0.573287,-0.91946 -2.889194,-10.364692 -2.938712,-10.087431 0.07402,-0.41446 4.53442,11.532231 5.032259,11.416461 1.061881,-0.24694 -3.53221,-12.914524 -3.585403,-12.661357 0.09092,-0.432718 5.057345,12.941327 5.605719,13.038477 1.14733,0.20327 -4.140075,-14.509749 -3.893344,-14.575199 0.609591,-0.161706 0.183496,-1.874716 0.376535,-2.973943 0.386343,-2.199956 -0.42608,-2.962847 -0.42608,-2.962847 0,0 0.12308,1.77947 0.08091,2.020405 -0.106657,0.609409 0.476601,2.748066 -0.374761,2.973943 -1.214163,0.322132 3.917121,14.577871 3.902042,14.575201 -0.265339,-0.047 -5.425882,-13.933979 -5.6135,-13.038479 -0.333056,1.589673 3.639056,12.650639 3.592959,12.661359 -0.252769,0.0588 -4.878005,-12.321343 -5.039072,-11.416463 -0.298605,1.677585 2.838376,10.258163 2.944731,10.087423 -0.06122,0.0983 -5.049236,-13.459826 -5.379386,-11.571456 -0.459294,2.627036 2.441642,10.699646 2.289335,10.947426 -0.257655,0.41916 -3.822637,-8.853706 -4.100254,-7.253202 -0.406553,2.343841 0.938965,6.092351 0.953145,6.094886 -0.24332,-0.04351 -0.05413,0.917636 -0.181371,1.640696 -0.258696,1.47006 0.978885,3.46359 0.978885,3.46359 z m 7.281622,-13.9158 c 0,0 3.88926,10.56497 4.501736,10.67344 0.749287,0.1327 -1.92456,-10.080629 -2.673847,-10.213331 0.254199,0.04522 4.666608,12.170051 4.920808,12.215271 0.584182,0.10348 -2.227154,-8.792938 -2.811337,-8.896419 0.311724,0.05547 4.19989,10.442919 4.511614,10.498389 0.681898,0.12081 -1.379069,-8.339317 -2.060967,-8.460126 0.301578,0.05368 3.010769,7.414046 3.312346,7.467726 0.61767,0.10941 -1.031575,-5.762994 -1.649244,-5.872408 0.19256,0.03428 3.055937,7.855968 3.248497,7.890248 0.638364,0.1131 -2.174696,-8.912322 -2.81306,-9.025426 0.221442,0.03942 2.227541,5.322706 2.448982,5.362126 0.665701,0.11789 -0.550714,-3.291082 0.114986,-3.173186 0.391983,0.06979 3.114846,7.090776 5.770825,14.188406 2.652246,7.08765 5.246423,14.27679 5.584346,14.63299 0.767565,0.80909 -1.728915,-7.26255 -4.45868,-15.50755 -2.732149,-8.2522 -5.713457,-16.699359 -5.588126,-16.677298 0.348194,0.06129 4.26504,10.418498 8.061541,20.840228 3.791086,10.40686 7.473472,20.91179 7.809261,21.19421 0.756237,0.63605 -3.117041,-11.75899 -7.387331,-24.24796 -4.273395,-12.49804 -8.966273,-25.1508 -9.145421,-25.075559 0.01678,-0.007 4.190825,11.340895 8.297675,22.744349 4.10365,11.39456 8.158122,22.89669 8.501696,23.15358 0.754678,0.56427 -2.415153,-9.70082 -5.888469,-20.08502 C 55.285613,103.6429 51.4854,93.106229 51.493965,93.085638 c 0.121168,-0.291265 4.431752,11.288002 8.597249,22.929642 4.166817,11.64533 8.215171,23.43075 8.433762,23.57025 0.573859,0.36622 -3.701344,-13.12573 -8.333996,-26.62422 -4.628953,-13.48772 -9.653762,-27.092153 -9.725378,-26.897014 0.04709,-0.128315 5.623155,14.975084 10.958503,30.056684 5.34535,15.10987 10.457205,30.28276 10.720135,30.43477 0.609854,0.35259 -4.013829,-14.43429 -9.043843,-29.23137 -5.025646,-14.78424 -10.499591,-29.69996 -10.567329,-29.540808 0.0597,-0.140269 5.056524,13.376968 9.803848,26.860688 4.756635,13.51017 9.264866,27.03944 9.264866,27.03944 0,0 -4.547875,-13.84848 -9.373208,-27.6365 -4.81592,-13.76111 -9.908673,-27.514285 -10.039671,-27.20607 -0.216999,0.510557 4.924291,15.23992 9.865267,29.76034 4.950526,14.54848 9.712415,28.97221 9.780974,29.01184 -0.09933,-0.0574 -5.182921,-15.32077 -10.561851,-30.49953 C 55.904205,99.962794 50.233546,84.813085 50.120411,85.121853 c -0.193183,0.527237 4.488856,13.91973 9.022731,27.117657 4.542527,13.22311 8.948856,26.32721 9.068579,26.40358 -0.06772,-0.0432 -4.06309,-11.8917 -8.265347,-23.61764 -4.197065,-11.71144 -8.601684,-23.34379 -8.79341,-22.882254 -0.285788,0.68797 3.153546,10.989784 6.524424,21.064404 3.37308,10.0812 6.702806,20.00518 6.656285,19.97042 -0.184145,-0.13763 -4.163871,-11.63767 -8.294442,-23.09053 -4.129025,-11.448568 -8.400421,-22.862811 -8.532317,-22.807401 -0.281619,0.118307 4.040286,12.460386 8.25271,24.755411 4.208664,12.28406 8.330339,24.58565 8.309474,24.56811 -0.16704,-0.14042 -3.763625,-10.60684 -7.576078,-21.05926 -3.813148,-10.45431 -7.829587,-20.888901 -8.319807,-20.97518 -0.685819,-0.120706 1.873617,7.8888 4.547256,15.94922 2.669919,8.0492 5.462729,16.17661 5.518755,16.23563 -0.14008,-0.14757 -2.654553,-7.30584 -5.330449,-14.45075 -2.676234,-7.14583 -5.507886,-14.275584 -6.041919,-14.370649 -0.815511,-0.145171 -0.928604,3.028009 -0.113093,3.173189 -0.221503,-0.0392 -2.230679,-5.322904 -2.452181,-5.362128 -0.494467,-0.088 2.323979,8.937418 2.818445,9.025428 -0.192708,-0.0341 -3.060497,-7.85611 -3.253205,-7.89025 -0.515217,-0.09171 1.137531,5.78069 1.652748,5.8724 -0.301679,-0.0534 -3.015123,-7.414285 -3.316802,-7.467718 -0.511967,-0.09112 2.577982,8.551248 2.066015,8.460128 -0.311911,-0.0553 -4.205968,-10.443138 -4.517878,-10.498392 -0.548979,-0.09768 2.267666,8.798732 2.816644,8.896422 -0.254455,-0.0451 -4.673641,-12.170204 -4.928096,-12.215273 -0.534538,-0.09508 3.214479,10.308413 2.679941,10.213333 -0.33312,-0.059 -4.165506,-9.731 -4.165506,-9.731 z m 24.927906,69.1589 c 0,0 1.914015,4.34782 1.827364,4.6813 0.09301,-0.35795 -1.376046,-5.15893 -1.070372,-5.04638 0.825238,0.30386 -0.346611,-3.34782 -0.588482,-3.00106 0.03099,-0.0444 1.363464,3.57024 1.973232,3.79213 1.258243,0.45788 -0.279658,-4.3492 -0.429271,-4.32839 0.234548,-0.0326 2.969094,8.28045 3.330558,8.41209 0.507636,0.18487 -0.30562,-4.5818 -1.103522,-4.86856 0.05115,0.0184 2.05377,6.07436 2.410402,6.20427 0.669486,0.24387 -0.477327,-4.64246 -1.146814,-4.88633 0.234474,0.0854 1.281575,3.01134 1.516049,3.09677 1.040151,0.3787 -0.600125,-4.77505 -0.249944,-4.70324 0.776012,0.15913 3.112955,7.09683 3.615698,7.27994 1.103502,0.40191 -1.057738,-6.41278 -0.899476,-6.65231 0.426464,-0.64545 0.549939,-0.75857 1.122074,-0.55059 1.225538,0.44552 -2.421488,-10.79914 -2.625165,-10.23411 0.0041,-0.0113 1.783837,5.29717 3.603212,10.63623 1.818978,5.33789 3.681124,10.7099 3.98324,10.82 1.257228,0.45816 -3.164656,-13.49872 -3.147578,-13.54522 0.229306,-0.62446 4.723602,13.21765 5.143415,13.3706 1.039332,0.37866 -4.518541,-16.98653 -4.659341,-16.60243 0.07793,-0.21258 2.836928,7.99428 3.318785,8.16911 1.087207,0.39446 -0.557587,-4.69644 -0.809383,-4.84818 0.233623,0.14079 4.028288,11.28427 4.672295,11.01417 1.222396,-0.51269 0.230803,-3.65443 -0.182468,-3.80494 0.0377,0.0137 1.819511,5.45103 1.998915,5.08304 0.4656,-0.95503 -2.071178,-7.29328 -2.071178,-7.29328 0,0 1.595535,6.72044 1.775508,6.35083 -0.01792,0.0368 -1.664332,-4.9601 -2.001948,-5.08303 -0.787481,-0.28672 0.468509,3.68589 0.184739,3.80494 -0.409527,0.1718 -4.1161,-10.67516 -4.678868,-11.01417 -1.065153,-0.64166 0.701256,4.80791 0.812276,4.84818 -0.182013,-0.066 -3.105141,-8.76621 -3.323659,-8.16911 -0.423547,1.15733 4.501711,16.5414 4.669248,16.60243 -0.120451,-0.0439 -4.781206,-14.38036 -5.151394,-13.37061 -0.58207,1.5877 3.215369,13.56698 3.155661,13.54523 -0.152314,-0.0555 -1.981699,-5.52418 -3.824023,-10.92394 -1.841593,-5.39762 -3.700469,-10.74004 -3.775232,-10.53229 -0.355621,0.98817 2.633765,10.23502 2.631272,10.23411 -0.272113,-0.0989 -0.517035,-0.36547 -1.121746,0.55059 -0.871511,1.32023 0.813294,6.61948 0.903446,6.65231 -0.203113,-0.074 -2.560013,-7.0626 -3.620043,-7.27994 -1.474418,-0.30231 0.08694,4.64288 0.252751,4.70324 -0.234668,-0.0854 -1.283229,-3.01135 -1.517896,-3.09677 -0.530377,-0.1932 0.619352,4.69313 1.149728,4.88633 -0.0569,-0.0207 -2.063176,-6.07818 -2.414104,-6.20427 -0.401084,-0.14412 0.414666,4.61668 1.106428,4.86856 -0.06164,-0.0224 -2.847174,-8.48005 -3.335577,-8.41209 -0.869215,0.12096 0.488335,4.34894 0.431853,4.32839 -0.309709,-0.11268 -1.763122,-4.09687 -1.975495,-3.79214 -0.484267,0.69487 0.211652,2.86169 0.590273,3.00107 -0.005,-0.002 1.285504,4.22814 1.073383,5.04638 -0.390829,1.50758 -1.528826,-3.73886 -1.528826,-3.73886 z m 15.295036,-1.24102 c 0,0 -2.008634,-7.87709 -2.121139,-7.56986 0.09981,-0.27257 1.307501,2.66281 1.691882,1.59954 C 76.329099,151.30094 70.907687,133.64554 64.966601,116.1528 59.051478,98.736505 52.639757,81.536321 52.519265,81.773583 c 0.02624,-0.05167 6.440029,17.354858 12.48353,34.614557 6.054932,17.29234 11.748016,34.5358 11.825642,34.32123 C 77.044583,150.1119 71.555059,132.74795 65.64359,115.35731 59.746618,98.009306 53.445624,80.76254 53.530007,80.612661 c 0.219175,-0.389291 6.486259,16.089277 12.380275,32.504319 5.903368,16.44108 11.437087,32.89677 11.54703,32.59196 C 77.719059,144.98325 72.278881,127.8085 66.37292,110.70868 60.490419,93.676786 54.16347,76.772237 54.065332,76.926579 c 0.06278,-0.09873 6.855774,18.073398 13.219705,36.171421 6.377976,18.13797 12.321437,36.27393 12.321437,36.27393 0,0 -5.975655,-18.43704 -12.420895,-36.84388 -6.431017,-18.366215 -13.324345,-36.774604 -13.47089,-36.543913 -0.23366,0.367826 5.970951,17.666169 11.872955,34.754593 5.912226,17.11802 11.528692,34.1149 11.560068,34.02777 -0.04043,0.11228 -5.543889,-16.41453 -11.455285,-32.84305 -5.902454,-16.403654 -12.21259,-32.783578 -12.510864,-32.253231 -0.384559,0.683766 5.786313,18.386945 11.68833,35.750721 5.913945,17.39887 11.573322,34.56362 11.651927,34.34598 -0.0077,0.0215 -5.672478,-17.29765 -11.736926,-34.57955 -6.053471,-17.250614 -12.511109,-34.557849 -12.61338,-34.356229 -0.201538,0.397314 6.092492,17.92584 12.031181,35.413619 5.952452,17.5283 11.538438,34.89427 11.439244,35.16911 -0.244087,0.67631 -1.452883,-2.25588 -1.692837,-1.59953 -0.449021,1.22822 2.427728,8.5123 2.427728,8.5123 z M 46.125495,65.120109 c 0,0 -0.226361,-1.994001 -0.491607,-1.731492 0.02423,-0.02398 1.32921,3.233219 1.622811,3.230203 0.759162,-0.0078 0.743867,-0.04827 0.956179,-0.22583 0.416963,-0.348704 2.01316,3.553649 2.430123,3.204945 0.459499,-0.384471 -1.634663,-7.711776 -2.094162,-7.327305 0.30193,-0.252894 1.984596,3.584011 2.286526,3.331118 0.559693,-0.467669 0.331056,-1.069501 0.890749,-1.53717 0.448484,-0.374973 2.396526,4.107974 3.353475,4.746311 1.833881,1.223297 -2.028786,-8.966758 -2.124129,-8.886942 0.214976,-0.179965 3.716298,8.910854 4.166069,9.450064 1.275593,1.529251 -3.256643,-10.455802 -3.408948,-10.328288 0.165226,-0.138331 4.74528,11.828626 5.155824,12.320739 1.232595,1.477495 -5.530653,-16.410747 -5.753407,-16.223922 0.115327,-0.09672 5.701894,14.329967 6.320807,15.069979 1.529972,1.829332 -5.2717,-16.133601 -5.323111,-16.09048 0.180272,-0.151205 9.186498,22.94534 17.561541,45.983691 8.38634,23.06942 16.12499,46.17387 16.380141,46.19384 0.593781,0.0465 -7.058314,-23.93783 -15.502904,-47.931476 C 64.105387,74.370199 54.808219,50.350242 54.863003,50.304233 c 0.242901,-0.203998 9.472482,23.284295 18.001537,46.720355 8.540707,23.468072 16.363455,46.979962 16.49625,46.983242 0.405725,0.01 -6.630738,-21.77123 -14.305973,-43.55775 C 67.379199,78.662473 59.019481,56.866329 59.049645,56.841098 c 0.361403,-0.3023 2.031861,3.590742 2.438619,3.22326 0.834562,-0.753978 -3.209337,-11.223752 -3.104821,-11.297889 0.416267,-0.295275 2.008771,3.497646 2.31775,3.238164 0.699052,-0.587065 -0.380451,-3.365504 -0.486307,-3.387 0.327635,0.06653 1.477181,2.828505 1.635997,2.440661 0.401955,-0.981615 -0.315273,-1.460953 -0.315273,-1.460953 0,0 -0.193346,0.867115 -0.05081,0.518511 -0.0226,0.05527 -1.021679,-2.315629 -1.637452,-2.440661 -1.045716,-0.212332 0.387092,3.472061 0.488328,3.387 -0.108792,0.09141 -1.695847,-3.680863 -2.319682,-3.238165 -0.935453,0.663836 3.157495,11.256369 3.111561,11.29789 -0.209493,0.189368 -1.878702,-3.693453 -2.440542,-3.22326 -0.396244,0.331608 7.678121,22.179968 15.321856,43.850922 7.654108,21.700362 14.868052,43.311532 15.041302,43.315812 0.05314,0.001 -7.784109,-23.55515 -16.347097,-47.043756 C 64.151192,72.563481 54.838875,49.074085 54.496473,49.36179 c -0.412004,0.346191 8.589726,24.416321 17.00025,48.28383 8.423121,23.90325 16.243414,47.71112 16.248405,47.71151 C 87.6261,145.34781 79.926067,122.20135 71.51669,99.108256 63.118539,76.04599 54.028461,52.94461 53.748443,53.179597 c -0.758359,0.636402 4.928538,15.607569 5.332712,16.09048 -0.137071,-0.163774 -6.01418,-15.334822 -6.329799,-15.069979 -0.587662,0.493119 5.060272,15.382069 5.763088,16.223922 0.08549,0.102399 -4.777532,-12.643771 -5.163176,-12.32074 -0.656396,0.549823 2.752087,9.533989 3.415111,10.328289 0.04203,0.05036 -3.744244,-9.80809 -4.171708,-9.450064 -0.716934,0.600472 2.534835,9.15726 2.129432,8.886942 -0.602831,-0.401961 -2.706826,-5.289608 -3.356307,-4.746311 -0.559121,0.467709 -0.330712,1.06946 -0.889832,1.53717 -0.301818,0.252319 -1.986696,-3.583437 -2.288514,-3.331118 -0.345991,0.289943 1.752543,7.617248 2.098534,7.327305 -0.416475,0.348646 -2.015559,-3.553592 -2.432035,-3.204945 -1.017797,0.851606 -1.253839,0.228889 -0.956044,0.22583 -0.02936,3.01e-4 -1.407912,-3.44492 -1.624739,-3.230203 -0.505211,0.500294 0.850329,2.673934 0.850329,2.673934 z M 80.39742,147.19828 c 0,0 -5.576142,-17.44483 -11.527797,-34.92852 C 62.920875,94.794612 56.601467,77.297687 56.665618,77.210585 c 0.212394,-0.288377 6.534235,16.21448 12.557579,32.739095 6.029083,16.54036 11.788606,33.18564 12.145157,33.26083 0.758423,0.15992 -4.230609,-15.93645 -9.713278,-32.0439 C 66.17745,95.073983 60.179781,78.893919 60.122709,78.960533 c 0.118049,-0.137787 6.559075,17.093699 12.635977,34.293107 6.084729,17.22156 11.800505,34.47751 11.931032,34.49941 0.397126,0.0666 -5.215307,-17.54585 -11.294684,-35.14091 C 67.32176,95.03475 60.752755,77.391368 60.668505,77.484521 c 0.09731,-0.107596 6.631688,17.38583 12.794236,34.838689 6.170344,17.47493 11.963345,34.97552 12.081875,34.99263 0.376299,0.0543 -5.043226,-16.93601 -10.90604,-33.90137 -5.856538,-16.947209 -12.18336,-33.948174 -12.286962,-33.824342 0.07297,-0.08722 6.65852,17.621485 12.882659,35.279412 6.232594,17.68191 12.099675,35.38499 12.276985,35.40645 0.465934,0.0564 -5.723619,-19.0965 -12.447516,-38.24967 C 68.342086,92.879541 61.03989,73.698458 61.03989,73.698458 c 0,0 6.936329,18.911572 13.443634,37.806522 6.5108,18.9051 12.599391,37.81387 12.720859,37.82857 -0.03924,-0.005 -5.868558,-17.76279 -12.123513,-35.47636 C 68.834272,96.167294 62.16711,78.450865 62.00256,78.647685 c -0.263082,0.314676 5.787447,17.277745 11.605426,34.093795 5.826056,16.8394 11.419446,33.60181 11.627989,33.63191 0.05095,0.007 -5.735041,-17.55395 -11.925816,-35.05552 C 67.125551,93.833727 60.50916,76.330795 60.318195,76.542079 c -0.290732,0.321665 5.999892,17.919988 12.036042,35.368861 6.044367,17.47262 11.832649,34.86705 12.0271,34.89967 0.03956,0.007 -5.66939,-17.31333 -11.774816,-34.56281 C 66.507068,95.015203 59.983534,77.77251 59.773279,78.018091 c -0.312276,0.364743 5.401739,16.48659 10.837841,32.440139 5.441535,15.96949 10.633536,31.84935 10.446143,31.80984 C 80.814829,142.21695 75.122584,125.5238 69.067581,108.94001 63.020394,92.377628 56.615211,75.860398 56.315144,76.268143 55.91984,76.805302 62.319408,94.59529 68.432539,112.15763 74.558615,129.75716 80.39742,147.19828 80.39742,147.19828 Z M 60.985268,60.298112 c 0,0 7.938027,20.735795 15.391324,41.445598 7.457844,20.72244 14.440091,41.44415 14.712788,41.44127 0.598083,-0.006 -5.889551,-20.40934 -12.975315,-40.77572 C 71.028443,82.043296 63.308358,61.715195 63.430554,61.860741 c 0.556134,0.662402 8.237527,20.501495 15.477608,40.440529 7.210043,19.8563 13.856596,39.56438 14.056983,39.55113 0.487651,-0.0322 -5.771707,-19.55511 -12.607967,-39.08258 C 73.516386,83.229407 66.117124,63.736899 66.020457,63.70061 c 0.224876,0.08442 8.371243,21.378731 15.997832,42.70789 7.620023,21.31081 14.659315,42.60137 14.80914,42.5865 0.413247,-0.041 -5.781588,-19.52719 -12.498088,-39.02138 C 77.614004,90.482803 70.345402,70.994089 70.433915,70.964833 c 0.290757,-0.0961 7.086369,17.513547 13.525079,35.107317 6.441767,17.60212 12.507073,35.2134 12.839993,35.16232 C 97.471456,141.13128 91.240629,121.41163 84.36989,101.71096 77.506538,82.031482 69.992866,62.33928 69.884652,62.396918 c 0.11792,-0.06281 7.853626,20.040105 15.16688,40.112802 7.319257,20.08918 14.196155,40.19757 14.560238,40.2281 0.73295,0.0615 -5.545637,-19.8763 -12.442688,-39.82822 C 80.270946,82.95454 72.713536,62.975889 72.791865,62.939853 c 0.293453,-0.13501 9.649632,24.035868 18.31674,48.142417 8.674688,24.12763 16.629705,48.25418 16.954255,48.13591 0.66807,-0.24345 -6.97957,-25.05164 -15.507461,-49.86525 C 84.033976,84.558155 74.596745,59.814465 74.649724,59.794189 c 0.278786,-0.106697 10.14633,25.359125 19.245824,50.760881 9.106662,25.42175 17.407592,50.83945 17.690222,50.73653 0.60818,-0.22147 -7.03353,-25.00904 -15.590824,-49.78992 -8.545151,-24.745742 -18.00188,-49.47749 -18.203318,-49.411566 0.07511,-0.02458 9.415485,24.485587 18.085891,48.928266 8.676171,24.45894 16.645391,48.89917 16.873711,48.81601 0.53011,-0.19308 -7.16502,-24.94497 -15.685317,-49.71795 C 88.552023,85.3621 79.176769,60.642591 79.303104,60.607477 c 0.347466,-0.09658 8.97005,22.031029 16.965364,44.047693 7.999482,22.02815 15.343062,43.97977 15.487902,43.58861 0.31842,-0.8599 -5.95757,-20.77628 -12.843698,-40.65651 -6.864149,-19.816763 -14.28338,-39.449367 -14.395154,-39.424439 0.132183,-0.02948 7.105347,18.326976 13.686681,36.650639 6.583641,18.33009 12.751901,36.64665 12.896701,36.56949 0.38274,-0.20396 -5.96728,-19.89882 -12.837685,-39.60328 -6.864656,-19.687966 -14.267151,-39.33607 -14.11273,-39.364096 0.369958,-0.06714 7.613518,18.381433 14.442821,36.782865 6.831284,18.406781 13.224294,36.782441 13.530614,36.596211 0.60969,-0.37068 -5.63105,-19.94637 -12.455564,-39.514988 -6.818071,-19.550154 -14.23435,-39.037839 -14.129452,-39.140176 0.276664,-0.269908 8.235451,19.964678 15.676976,40.140989 7.45126,20.202715 14.3766,40.426365 14.6022,40.266585 C 116.3108,137.19813 109.77137,116.8689 102.61171,96.6786 95.494189,76.607144 87.682927,56.456052 87.683113,57.057598 c -3.9e-5,-0.12369 8.124743,20.980242 15.682007,41.702776 7.59786,20.833856 14.71196,41.620306 14.97599,41.418266 0.54698,-0.41854 -6.22442,-21.66011 -13.6769,-42.995071 C 97.220762,75.87446 89.079663,54.549517 89.080564,54.093495 c 0.0021,-1.069684 8.543215,20.462624 16.489126,41.871765 7.98346,21.5103 15.43651,43.20089 15.71245,42.95354 0.56588,-0.50724 -6.92665,-23.88492 -15.21406,-47.253216 C 97.793486,68.333417 88.716228,45.119027 88.760564,45.119027 c 0.283984,0 8.602686,20.876354 16.411086,41.689079 7.80841,20.812724 15.06919,41.561824 15.31596,41.307304 0.50154,-0.5173 -5.21372,-18.20114 -11.39205,-35.824873 -6.17012,-17.600313 -12.80385,-35.070259 -12.632623,-35.042664 0.413065,0.06657 7.223943,17.250818 13.658383,34.36174 6.43264,17.106127 12.4593,34.124547 12.69802,33.835477 0.48167,-0.58326 -4.97656,-17.43995 -10.86488,-34.220064 -5.87983,-16.75596 -12.186521,-33.362883 -12.03404,-33.325834 0.40048,0.0973 6.96047,16.742664 13.15957,33.378517 6.19651,16.628911 11.99966,33.227471 12.19488,33.196471 0.4642,-0.0737 -4.89816,-16.37309 -10.63711,-32.650868 -5.73764,-16.274032 -11.87145,-32.515245 -11.67692,-32.453949 0.45229,0.142518 7.25052,17.402705 13.6752,34.69939 6.42098,17.286757 12.42923,34.580207 12.7068,34.739617 0.6375,0.36609 -4.67465,-15.9737 -10.41194,-32.340129 -5.74318,-16.383215 -11.95573,-32.843426 -11.85095,-32.8021 0.37577,0.148215 7.50557,18.537713 14.23068,36.972329 6.7198,18.42004 12.98725,36.84147 13.22903,36.98068 0.58621,0.33753 -4.69731,-16.12652 -10.38227,-32.59965 -5.69088,-16.490269 -11.82738,-33.041061 -11.66275,-32.96276 0.43033,0.204673 5.96241,14.529398 11.21047,28.86508 5.24396,14.32447 10.17291,28.62625 10.3519,28.72895 0.93464,0.53627 -2.45662,-9.40311 -2.31113,-9.31602 0.64669,0.3871 3.41335,8.34525 3.71959,8.52083 0.59687,0.34223 -2.7859,-9.55858 -2.18903,-9.21636 0.83012,0.47759 6.94695,18.40694 7.09515,18.14882 0.42753,-0.74461 -4.80595,-16.20076 -4.74374,-16.16496 0.55813,0.3212 6.68127,18.05418 6.96616,17.5598 0.6308,-1.09462 -3.29488,-12.77047 -3.45939,-12.86526 0.35309,0.20344 3.61714,9.08387 4.09334,8.25549 0.8976,-1.56142 -1.51409,-8.69986 -1.80457,-8.79882 0.1693,0.0577 2.28514,5.76152 2.63633,5.14967 0.71342,-1.24293 -1.1633,-6.80775 -1.43827,-6.65987 0.071,-0.0382 2.4543,6.80051 2.62681,6.50035 0.46129,-0.8026 -1.37546,-6.20603 -1.149,-6.57056 0.48313,-0.77769 2.18423,3.96014 2.39439,3.59427 0.21445,-0.37333 -0.99825,-6.7398 -1.40849,-6.04004 0.14702,-0.25077 4.26543,11.13864 4.71289,10.36507 0.85478,-1.47774 -0.40669,-5.1976 -0.2559,-5.17276 0.57231,0.0943 -0.87131,-4.58301 -0.64372,-5.34972 0.48363,-1.62927 1.84332,3.8903 1.84332,3.8903 0,0 -2.17556,-4.80492 -2.16731,-4.83274 -0.10441,0.35243 1.50031,5.49028 0.64691,5.34971 -1.27496,-0.21 0.44298,4.85435 0.25899,5.17277 -0.27952,0.48374 -4.40509,-10.90119 -4.71908,-10.36508 -0.2589,0.44207 0.9604,6.82721 1.4121,6.04005 -0.0434,0.0756 -1.74292,-4.6474 -2.39654,-3.59427 -0.82441,1.32832 0.86683,7.06886 1.15292,6.57056 -0.005,0.009 -2.33571,-6.65905 -2.63068,-6.50036 -0.63099,0.33946 1.49052,6.57568 1.44224,6.65988 -0.18397,0.32084 -2.1699,-4.98976 -2.63941,-5.14968 -0.91977,-0.31328 2.0351,8.40654 1.80983,8.79883 -0.30834,0.53692 -3.41493,-7.8619 -4.09827,-8.2555 -1.14998,-0.66238 3.42692,12.93501 3.46707,12.86527 -0.11653,0.20243 -6.08759,-17.04833 -6.97664,-17.55981 -1.339,-0.77032 4.52499,16.56318 4.75339,16.16497 0.0359,-0.0625 -5.89538,-17.45256 -7.10598,-18.14882 -1.0495,-0.6036 1.14502,8.61276 2.19452,9.21636 0.34882,0.19993 -3.05559,-8.12047 -3.72467,-8.52083 -1.94823,-1.1658 2.42032,9.37546 2.31669,9.31602 -0.0144,-0.008 -4.87132,-14.27166 -10.12423,-28.60055 -5.25713,-14.340368 -10.88003,-28.711766 -11.47251,-28.993482 -0.7827,-0.372163 4.99998,15.963182 10.70434,32.448942 5.6998,16.47254 11.27966,33.05583 11.3798,33.11347 -0.0777,-0.0447 -6.27796,-18.43536 -13.01033,-36.863646 -6.73778,-18.443112 -13.96094,-36.879352 -14.49351,-37.089366 -0.70194,-0.276801 5.15638,15.972873 10.90605,32.333755 5.74591,16.350187 11.34524,32.779487 11.39572,32.808467 -0.11293,-0.0648 -6.05568,-17.33452 -12.49006,-34.633035 -6.43814,-17.308613 -13.32961,-34.615753 -13.93338,-34.805964 -0.77147,-0.243044 5.09483,16.021411 10.87048,32.371311 5.77271,16.341538 11.41981,32.743448 11.48239,32.733508 -0.0694,0.011 -5.81022,-16.56978 -12.01149,-33.184803 -6.20387,-16.621991 -12.83577,-33.257324 -13.382677,-33.390187 -0.709971,-0.172478 5.399357,16.648311 11.343257,33.560212 5.94968,16.928328 11.70126,33.858088 11.59597,33.985678 -0.14475,0.17541 -6.11281,-16.83162 -12.54401,-33.903629 -6.43298,-17.076765 -13.298862,-34.20427 -13.853089,-34.29358 -0.706917,-0.113915 5.718479,17.549048 11.943159,35.278305 6.23089,17.746934 12.23139,35.478184 12.1238,35.589234 -0.14843,0.15318 -7.35693,-20.59591 -15.16948,-41.383306 C 97.185483,65.002272 88.807182,44.176585 88.390941,44.176585 c -0.574873,0 8.321521,23.397572 16.639209,46.821331 8.33008,23.458654 16.09404,46.838804 15.93834,46.978444 -0.17367,0.15575 -7.63299,-21.70567 -15.65624,-43.278489 C 97.324491,73.220504 88.718234,51.745404 88.716296,53.151053 c -0.0023,1.679378 7.973366,23.452867 15.268874,44.357922 7.35318,21.070295 14.16168,41.636405 14.04304,41.727225 -0.15818,0.12109 -7.27819,-20.83804 -14.91642,-41.738007 C 95.512323,76.704292 87.320193,55.651352 87.320613,56.115156 c 7.94e-4,0.875798 7.560134,20.987174 14.610817,40.885097 7.05758,19.917397 13.63069,39.562917 13.57218,39.604377 -0.11825,0.0838 -7.00656,-20.18692 -14.47314,-40.394164 -7.457011,-20.181344 -15.481616,-40.37693 -15.854016,-40.013412 -0.46259,0.451557 6.726492,20.127722 13.530991,39.623545 6.820025,19.540311 13.267715,38.930191 13.100955,39.031611 -0.19603,0.11923 -6.53849,-18.26769 -13.377553,-36.663348 -6.837099,-18.39036 -14.145994,-36.805326 -14.639664,-36.71572 -0.616088,0.111826 6.544243,19.892619 13.428764,39.611898 6.886703,19.72553 13.469613,39.40834 13.568763,39.35548 -0.032,0.0171 -6.15038,-18.31313 -12.742806,-36.63501 C 91.455762,85.489976 84.415852,67.163689 84.161646,67.220389 c -0.374606,0.08355 6.928112,20.098103 13.853143,40.077251 6.945541,20.03833 13.468131,39.91 13.433501,40.00369 -0.0743,0.20085 -7.37346,-21.76744 -15.37449,-43.75633 C 88.076857,81.567348 79.409186,59.535364 78.942723,59.665035 c -0.553164,0.153773 8.553759,24.989121 17.07727,49.738775 8.534807,24.78244 16.483547,49.46865 16.430057,49.48814 -0.10947,0.0399 -8.03411,-24.41965 -16.72542,-48.87741 C 87.039058,85.572911 77.624778,61.084612 77.432131,61.147672 c -0.320178,0.104805 8.959695,24.890402 17.523062,49.657188 8.569687,24.78505 16.461577,49.49648 16.330277,49.5443 -0.16374,0.0596 -8.42163,-25.3802 -17.544604,-50.80221 C 84.625018,84.144803 74.682857,58.700921 74.288858,58.851747 c -0.515633,0.197388 8.7001,25.027659 17.231846,49.821443 8.538036,24.81207 16.431946,49.53281 16.240616,49.60255 -0.20571,0.075 -8.118142,-24.07753 -16.809075,-48.20733 -8.683406,-24.108888 -18.113555,-48.257755 -18.519369,-48.071 -0.497025,0.228731 6.767727,20.214544 13.648489,40.09122 6.88489,19.8886 13.405805,39.7224 13.219032,39.70674 -0.227686,-0.0191 -7.059981,-20.15684 -14.397924,-40.26356 C 77.570507,81.441475 69.753265,61.333038 69.525338,61.454476 c -0.331652,0.176702 6.938493,19.908783 13.796437,39.548334 6.865481,19.66114 13.331411,39.26367 13.164942,39.28922 -0.20668,0.0317 -6.223022,-17.59907 -12.677516,-35.2061 -6.451457,-17.598737 -13.32101,-35.198578 -13.729487,-35.063539 -0.528077,0.174578 6.465306,19.710148 13.177455,39.164049 6.715831,19.46457 13.127948,38.87949 13.26262,38.86611 -0.02135,0.002 -6.99756,-21.2594 -14.623578,-42.5525 -7.632627,-21.311544 -15.854365,-42.599289 -16.23429,-42.741883 -0.523309,-0.196409 6.633468,19.314025 13.511362,38.920723 6.872685,19.59185 13.413928,39.23543 13.47996,39.23106 -0.07059,0.005 -6.613892,-19.55869 -13.806601,-39.3405 C 71.623001,81.702579 63.872583,61.872467 63.070921,60.918298 c -1.040209,-1.238096 6.368448,18.962526 13.603863,39.684452 7.21283,20.65724 14.177117,41.63901 14.10349,41.63979 -0.140523,0.001 -7.057311,-20.48462 -14.470427,-40.9711 C 68.899218,80.797362 60.985268,60.298112 60.985268,60.298112 Z M 101.19313,163.35564 c 0,0 1.03081,3.43836 1.4268,3.71795 1.00666,0.71075 -2.22466,-9.46754 -2.06554,-9.59188 0.47728,-0.37294 2.70788,5.85745 3.33549,5.63027 0.68584,-0.24826 1.78821,-0.40453 1.10237,-0.15627 0.41154,-0.14973 2.22906,4.82572 2.6406,4.67599 1.22284,-0.44486 -1.50321,-7.34296 -1.50321,-7.34296 0,0 1.47563,6.30266 1.20669,6.40052 -0.41128,0.14965 -2.23211,-4.82565 -2.64339,-4.676 -0.51577,0.18769 -0.58651,-0.0314 -1.10228,0.15628 -0.38957,0.14105 -2.64978,-6.16895 -3.33885,-5.63027 -0.999369,0.78127 1.72213,9.34547 2.07127,9.59188 -0.0556,-0.0393 -1.12995,-2.77551 -1.12995,-2.77551 z m 9.72882,-15.86155 c 0,0 3.37758,10.22652 3.84641,10.0557 1.0032,-0.36552 0.17802,-2.93144 -0.006,-2.96107 0.23645,0.038 3.98938,11.5258 4.29499,11.41468 0.5193,-0.18882 -1.40815,-6.25969 -0.88886,-6.4485 0.65274,-0.23593 0.72477,-0.82096 1.38504,-1.06139 1.24869,-0.45471 -0.67456,-6.42189 -0.37472,-6.38677 0.72378,0.0848 3.1074,7.10888 3.1074,7.10888 0,0 -2.41073,-7.93389 -3.41319,-8.05132 -1.40289,-0.16433 0.67686,6.2781 0.37853,6.38676 -0.4226,0.15393 -0.49404,0.73952 -1.38439,1.06139 -0.7247,0.26199 0.16801,6.71049 0.8927,6.4485 -0.0676,0.0246 -3.78552,-11.33166 -4.3018,-11.41467 -0.93599,-0.1505 0.0607,2.94187 0.008,2.96107 -0.23489,0.0856 -3.54387,-9.11326 -3.54387,-9.11326 z M 80.606434,42.353083 c 0,0 3.496367,8.778315 4.05766,8.827757 1.182349,0.10415 -0.723736,-4.780412 -1.037584,-4.587768 0.0077,-0.0047 -1.809713,-5.211514 -1.14762,-5.211514 0.466725,0 1.446138,-1.675659 0.979413,-1.675659 0.76105,0 3.466706,6.566148 3.466706,6.566148 0,0 -2.810441,-7.50859 -3.839559,-7.50859 -0.594348,0 -1.572761,1.675659 -0.978413,1.675659 -0.396825,0 1.372236,5.075501 1.15073,5.211514 -0.542283,0.332983 1.119787,4.594768 1.040321,4.587768 -0.289876,-0.02553 -3.691654,-7.885315 -3.691654,-7.885315 z m 14.752571,14.238888 c 0,0 -3.090864,-9.390972 -2.788227,-9.390972 0.719152,0 4.96767,10.367419 4.97407,8.632311 0.01238,-3.355926 -5.923012,-18.48698 -5.646489,-18.48698 0.674426,0 3.880885,7.827933 4.226123,7.658561 0.779249,-0.382294 1.89678,2.473705 2.238902,2.473705 0.146514,0 1.18319,-0.730176 1.036676,-0.730176 0.578956,0 -1.787379,-6.024668 -1.208423,-6.024668 0.576028,0 3.259873,6.554195 3.603413,6.433317 0.79749,-0.280607 -2.09099,-6.265374 -2.09099,-6.265374 0,0 1.58577,5.371083 1.72259,5.322932 -0.1103,0.03882 -2.765963,-6.433317 -3.607259,-6.433317 -0.656412,0 0.555606,6.024668 1.212018,6.024668 -0.593567,0 -0.442673,0.730175 -1.03624,0.730175 -1.401946,0 -2.351036,-2.4194 -2.240378,-2.473704 -0.122717,0.06022 -3.290999,-7.658561 -4.230693,-7.658561 -1.337597,0 5.659459,17.860124 5.65752,18.48698 -0.0033,1.052841 -3.994801,-8.632311 -4.979221,-8.632311 -1.359787,0 3.156608,10.333414 3.156608,10.333414 z M 137.53165,140.6913 c 0,0 -1.01754,-2.86716 -0.66385,-2.6683 0.92672,0.52105 1.88746,3.41656 1.96093,3.28956 0.32657,-0.5645 2.68052,6.43918 2.90606,6.37435 0.65019,-0.18688 -2.89324,-9.2644 -2.89324,-9.2644 0,0 2.26265,8.41457 2.58482,8.32196 0.0292,-0.008 -2.41711,-7.22699 -2.90986,-6.37435 -0.74671,1.29208 -2.33907,-3.501 -1.9629,-3.28956 -0.0265,-0.0149 0.97804,3.61074 0.97804,3.61074 z M 101.37362,41.062448 c 0,0 0.62858,1.762543 0.65925,1.107827 0.0801,-1.709378 -0.0619,-0.722313 -0.0619,-0.722313 0,0 -0.34175,0.478685 -0.30943,-0.220129 -0.002,0.05268 -0.28787,-0.165385 -0.28787,-0.165385 z m 29.73104,79.286312 c 0,0 -4.29234,-12.85314 -8.77914,-25.705771 -4.48513,-12.847865 -9.16106,-25.685691 -9.08818,-25.645537 0.34608,0.19067 5.55945,13.70655 10.50789,27.169834 4.94395,13.451094 9.59492,26.813004 9.65721,26.634764 0.1863,-0.53316 -4.81457,-15.54933 -10.11802,-30.530499 -5.29207,-14.949017 -10.87029,-29.766579 -10.72705,-29.741763 0.37744,0.06539 6.05132,14.551832 11.4076,28.986533 5.35492,14.431029 10.37063,28.799309 10.42254,28.610019 0.15625,-0.56976 -3.84198,-12.61182 -8.06344,-24.591274 -4.21312,-11.955759 -8.63532,-23.777831 -8.61461,-23.789153 0.19197,-0.104946 3.67287,8.806888 7.02978,17.631096 3.36239,8.838607 6.59272,17.566581 6.66986,17.165911 0.17752,-0.92205 -3.22237,-11.194735 -6.81502,-21.294471 -3.58266,-10.071656 -7.34036,-19.926691 -7.3853,-19.873046 0.10707,-0.127822 4.74995,11.794548 9.20886,23.499289 4.47129,11.737238 8.74916,23.226478 8.82564,22.394898 0.149,-1.62015 -2.09061,-8.98283 -4.49051,-16.052829 -2.39675,-7.06067 -4.92893,-13.76124 -5.14842,-14.010533 0.13624,0.154743 2.53617,6.448627 4.8826,12.575307 2.34501,6.122991 4.62251,12.039165 4.68017,11.420045 0.24412,-2.62118 -5.48251,-18.471667 -6.21537,-19.551133 0.18247,0.268775 4.03786,10.73004 4.23477,10.516002 0.52651,-0.572319 -4.95472,-15.605306 -3.82955,-13.502489 2.40045,4.486167 6.29295,15.019044 6.60738,14.963355 0.76982,-0.136347 0.65938,-0.444422 0.50142,-0.425262 0.2234,-0.0271 1.45894,2.734827 2.12483,2.616922 0.70298,-0.124473 -0.73208,-4.125115 -0.0291,-4.249587 0.48462,-0.08618 1.83287,3.24182 2.31749,3.155638 0.5011,-0.08873 -3.26936,-10.521699 -2.76826,-10.610433 0.4931,-0.08776 3.60051,7.904743 4.0936,7.816983 0.69408,-0.122938 -0.42441,-6.00618 -1.11849,-5.883242 0.21238,-0.03779 4.60878,12.005436 4.82116,11.967646 0.52931,-0.0937 -2.5351,-9.714289 -3.06441,-9.620601 0.31126,-0.05537 4.3994,10.761571 4.71066,10.706201 0.7202,-0.12745 -2.50608,-11.787175 -3.22629,-11.659718 0.11816,-0.02102 4.58502,12.154948 4.93406,12.113858 0.96045,-0.11307 -4.53638,-14.745998 -4.58818,-14.736781 0.23294,-0.04145 2.85385,6.78193 4.4129,9.806084 3.3435,6.485557 -0.51719,-4.281639 -0.38535,-4.451225 0.40361,-0.519155 5.90931,14.390842 6.42497,14.211922 1.12851,-0.39156 -5.62953,-18.923412 -5.70867,-18.758803 0.13272,-0.276047 6.41745,16.641183 6.33572,14.601673 -0.16024,-3.99839 -4.18812,-15.156222 -4.06711,-15.17389 0.50065,-0.0731 1.71873,2.920954 1.71873,2.920954 0,0 -1.30829,-3.973477 -2.06214,-3.863396 -1.12842,0.164778 4.05081,14.550422 4.07616,15.173892 0.0486,1.19578 -6.06103,-15.191827 -6.34443,-14.601675 -0.50965,1.061308 5.81481,18.725855 5.71986,18.758805 -0.27918,0.0969 -5.8491,-14.964124 -6.43344,-14.211925 -0.85457,1.100075 0.2593,4.201873 0.388,4.451226 -0.69161,-1.340003 -3.93674,-9.891863 -4.41875,-9.806084 -0.94406,0.168007 4.53812,14.743713 4.59698,14.736783 -0.0944,0.0111 -4.57397,-12.179211 -4.94129,-12.11386 -0.45,0.08006 3.68325,11.57966 3.23324,11.65972 -0.31112,0.0551 -4.40592,-10.76127 -4.71704,-10.706203 -0.46819,0.08329 2.60196,9.703893 3.07015,9.620603 -0.2122,0.0376 -4.61611,-12.00521 -4.8283,-11.967648 -0.47374,0.0843 1.59573,5.798941 1.122,5.883242 -0.49307,0.08734 -3.60519,-7.904328 -4.09826,-7.816983 -0.50654,0.09016 2.26805,10.700594 2.77458,10.610432 -0.48471,0.08584 -1.83466,-3.241478 -2.31937,-3.155638 -0.70241,0.124929 0.73405,4.124659 0.0316,4.249587 -0.41636,0.07373 -1.64883,-2.674854 -2.1264,-2.616921 -0.85875,0.104174 -0.72903,0.465624 -0.50116,0.425262 -0.065,0.01151 -3.36205,-8.888288 -6.61631,-14.963355 -2.28265,-4.261255 -1.33327,-0.757304 0.15651,3.675692 1.50173,4.468536 3.56619,9.951777 3.6811,9.826796 -0.006,0.0067 -3.48193,-9.398848 -4.24105,-10.516001 -0.81088,-1.193328 0.78224,3.648467 2.54565,8.815037 1.76288,5.165038 3.68933,10.650248 3.68139,10.736098 -0.0298,0.322 -2.19953,-5.463719 -4.49818,-11.448084 -2.29989,-5.987621 -4.71411,-12.133225 -5.07891,-12.54727 -0.69484,-0.788629 1.80304,6.513206 4.40507,14.132765 2.60545,7.629599 5.29017,15.510629 5.2518,15.930599 -0.0484,0.52923 -4.28801,-11.009993 -8.75201,-22.701725 -4.45102,-11.657727 -9.11227,-23.428541 -9.30987,-23.192464 -0.3182,0.38015 3.35852,10.725937 6.98879,20.929458 3.63927,10.228808 7.22544,20.293551 7.23609,20.238061 -0.0324,0.16858 -3.21602,-8.611552 -6.56407,-17.393387 -3.34686,-8.778697 -6.85481,-17.568514 -7.15633,-17.403622 -0.44839,0.24521 3.86264,12.509674 8.12978,24.61285 4.27637,12.129349 8.49719,24.059709 8.57713,23.767579 0.0149,-0.0545 -4.93827,-14.35164 -10.29235,-28.752365 -5.34446,-14.374864 -11.05317,-28.754287 -11.57215,-28.844189 -0.68867,-0.119297 4.75464,15.073668 10.13062,30.24284 5.38487,15.194264 10.66791,30.265904 10.75041,30.029414 0.0125,-0.0358 -4.56568,-13.30673 -9.50101,-26.709316 -4.93149,-13.392184 -10.18282,-26.81253 -10.6962,-27.095274 -0.72446,-0.399 4.03004,12.654411 8.77585,25.840114 4.74412,13.181026 9.44685,26.453636 9.44685,26.453636 z m -8.99911,-47.794006 c 0,0 -3.56007,-10.861726 -3.74075,-10.645788 0.1028,-0.122856 4.81756,11.882352 5.19997,11.413642 0.58459,-0.716505 -1.00316,-6.469795 -1.42133,-5.972594 0.058,-0.06895 1.44519,3.452349 1.63417,3.226437 0.5053,-0.604068 -1.26084,-5.280581 -1.01896,-5.568422 0.51605,-0.61408 0.97861,0.377506 1.2085,0.101931 0.45726,-0.548132 -0.032,-2.644955 -0.25166,-2.383351 0.1604,-0.190992 1.54004,2.791028 2.02689,2.208023 0.93297,-1.117236 -1.76678,-6.785702 -1.76678,-6.785702 0,0 1.61201,5.599961 1.40898,5.84326 -0.30423,0.364572 -1.68553,-2.616341 -2.02821,-2.208023 -0.51327,0.611573 -0.0157,2.705761 0.25309,2.383351 -0.0475,0.05697 -0.51024,-0.933505 -1.20856,-0.101931 0.0612,-0.07284 -0.23314,7.070278 1.02227,5.568422 -0.006,0.0071 -1.39523,-3.513018 -1.63609,-3.226437 -0.51523,0.61303 1.47748,5.908098 1.4249,5.972594 -0.20038,0.245782 -4.92196,-11.754291 -5.20678,-11.413642 -0.54735,0.654621 4.10035,11.58823 4.10035,11.58823 z m 0.28498,-18.523382 c 0,0 -0.56956,-2.844302 -0.47153,-2.955681 0.37491,-0.42599 6.924,16.267659 7.26228,15.863863 0.71824,-0.857369 -6.79208,-20.374016 -6.76843,-20.372536 0.43153,0.027 5.8119,13.389409 6.2791,12.967515 0.92883,-0.838735 -2.39101,-9.425647 -2.74143,-9.719522 0.24862,0.208502 4.14556,10.14492 4.4225,10.125664 0.73161,-0.05087 -0.91969,-4.342853 -1.4505,-4.789008 0.0582,0.04888 1.34525,2.849202 2.17877,3.399757 1.69892,1.122172 -1.2719,-6.420935 -1.6344,-6.724708 0.18631,0.156129 4.06117,9.977645 4.58303,10.39288 1.51621,1.206435 -2.29439,-7.755375 -2.24908,-7.717391 0.36671,0.307484 2.40314,5.224542 2.85662,5.164821 0.97252,-0.128078 -0.84423,-4.855941 -0.5591,-4.617125 0.87285,0.731088 3.31598,6.606658 3.64873,5.962782 0.67145,-1.299261 0.60459,-0.08513 0.60459,-0.08513 0,0 -0.90348,-0.975972 -0.96473,-0.857311 -0.17999,0.348683 -2.38699,-4.903513 -3.65229,-5.962782 -1.85244,-1.550802 0.52982,4.621344 0.56186,4.617125 -0.20092,0.02646 -2.10043,-4.52849 -2.85971,-5.164821 -1.61851,-1.35643 2.25093,7.715196 2.25369,7.717391 -0.14122,-0.112313 -4.00972,-9.907489 -4.58923,-10.39288 -1.16916,-0.979287 1.86505,6.874351 1.63841,6.724708 -0.47848,-0.315921 -1.72997,-3.02102 -2.1808,-3.399758 -1.03932,-0.873124 1.15329,4.809874 1.45336,4.789009 -0.0185,0.0013 -3.78593,-9.587017 -4.42855,-10.125664 -1.23341,-1.033865 2.87954,9.599989 2.74724,9.719522 -0.26993,0.243883 -5.58336,-12.923506 -6.28684,-12.967515 -0.55327,-0.03461 1.16922,5.062059 3.00176,10.165954 1.83321,5.105766 3.77409,10.212238 3.77882,10.206582 -0.15538,0.185614 -6.71313,-16.499019 -7.27174,-15.863863 -0.83371,0.947949 0.8376,3.898123 0.8376,3.898123 z"
         id="path836-3-7"
         inkscape:path-effect="#path-effect829"
         inkscape:original-d="m 80.335515,147.36841 -3.868739,10.63189 a 2.1168345,2.1168345 64.997751 0 0 1.26523,2.71301 l 2.879059,1.0479 a 2.1166741,2.1166741 64.999922 0 1 1.26508,2.71296 l -0.254575,0.69944 a 2.1166589,2.1166589 154.99993 0 1 -2.712952,1.26508 l -6.431399,-2.34085 a 2859481,2859481 19.999991 0 0 -3.978033,-1.44788 l -6.43139,-2.34083 a 2.1166648,2.1166648 64.999975 0 1 -1.265074,-2.71296 l 0.254574,-0.69943 a 2.1166688,2.1166688 154.99997 0 1 2.71296,-1.26508 l 2.879058,1.04789 a 2.1153121,2.1153121 154.98161 0 0 2.711684,-1.26554 l 3.847318,-10.59154 c 0.399118,-1.09876 -0.142369,-2.3782 -1.180534,-2.91533 -5.530911,-2.86158 -10.360191,-6.88627 -14.206722,-11.74737 -0.725322,-0.91663 -2.095377,-1.21819 -3.108979,-0.6358 l -9.827264,5.64652 a 2.1122616,2.1122616 105.05966 0 0 -0.776954,2.8876 l 1.531912,2.65334 a 2.1166674,2.1166674 104.99997 0 1 -0.774752,2.89142 l -0.644618,0.37218 a 2.1166634,2.1166634 15.000002 0 1 -2.891418,-0.77476 l -3.422066,-5.9272 a 3432926.1,3432926.1 60.000012 0 0 -2.116666,-3.66618 l -3.422072,-5.92719 a 2.1166653,2.1166653 105 0 1 0.774753,-2.89142 l 0.644626,-0.37218 a 2.1166656,2.1166656 15.00003 0 1 2.891419,0.77476 l 1.531906,2.65334 a 2.1182444,2.1182444 15.02139 0 0 2.892208,0.77612 l 9.820678,-5.6602 c 1.012822,-0.58375 1.44173,-1.92039 1.014926,-3.00858 -1.698671,-4.33095 -2.750991,-8.9968 -2.988571,-13.87605 -0.05685,-1.1675 -0.05567,-3.06407 -0.0017,-4.23172 0.03037,-0.65652 -0.863989,-1.35319 -2.015087,-1.557 L 35.840446,98.322621 a 2.1151553,2.1151553 145.02042 0 0 -2.451801,1.715469 l -0.532022,3.01726 a 2.1166667,2.1166667 144.99996 0 1 -2.452064,1.71696 l -0.73303,-0.12926 a 2.1166654,2.1166654 54.999976 0 1 -1.716955,-2.45206 l 1.18847,-6.740152 1.923588,-10.90918 a 2.1166647,2.1166647 145.00006 0 1 2.452066,-1.716951 l 0.733022,0.129252 a 2.116672,2.116672 55.000019 0 1 1.716956,2.452069 l -0.532024,3.01727 a 2.1198975,2.1198975 55.043641 0 0 1.716394,2.455242 l 11.054276,1.966546 c 1.150932,0.20475 2.313049,-0.549586 2.659316,-1.665996 1.920685,-6.192532 5.241856,-11.788012 9.599858,-16.424472 0.800554,-0.851707 0.87905,-2.232987 0.12909,-3.129719 l -7.216744,-8.629098 a 2.1132154,2.1132154 5.0466178 0 0 -2.979381,-0.263105 l -2.347014,1.969388 a 2.1166654,2.1166654 4.9998868 0 1 -2.982028,-0.260888 l -0.47845,-0.570192 a 2.1166639,2.1166639 94.999943 0 1 0.26089,-2.982027 l 5.24292,-4.399334 8.48583,-7.120469 a 2.1166688,2.1166688 4.9999192 0 1 2.98203,0.260889 l 0.47846,0.570204 a 2.1166638,2.1166638 94.99993 0 1 -0.26089,2.982026 l -2.34703,1.969394 a 2.1180345,2.1180345 95.018476 0 0 -0.26194,2.982907 l 7.26927,8.674542 c 0.750842,0.895993 2.148354,1.095984 3.153883,0.499981 4.842606,-2.870341 10.287042,-4.847472 16.103287,-5.658946 1.157671,-0.161517 2.10261,-1.18836 2.102475,-2.357363 l -0.0013,-11.306776 a 2.1169119,2.1169119 44.996682 0 0 -2.116912,-2.116667 h -3.063826 a 2.1166667,2.1166667 45 0 1 -2.116667,-2.116667 v -0.744336 a 2.1166667,2.1166667 135 0 1 2.116667,-2.116667 h 6.844141 11.077473 a 2.1166667,2.1166667 45 0 1 2.11667,2.116667 v 0.744336 a 2.1166667,2.1166667 135 0 1 -2.11667,2.116667 h -3.063824 a 2.1169119,2.1169119 135.00332 0 0 -2.116912,2.116667 l -0.0013,11.306776 c -1.35e-4,1.169003 0.944805,2.195846 2.102476,2.357363 5.81625,0.811475 11.26069,2.788606 16.1033,5.658947 1.00553,0.596003 2.40304,0.396011 3.15388,-0.499982 l 7.26926,-8.674542 a 2.1180355,2.1180355 84.98151 0 0 -0.26194,-2.982907 l -2.34703,-1.969394 a 2.1166638,2.1166638 85.00007 0 1 -0.26089,-2.982026 l 0.47846,-0.570204 a 2.1166688,2.1166688 175.00008 0 1 2.98203,-0.260889 l 5.24291,4.399332 8.48584,7.120471 a 2.1166606,2.1166606 85.000101 0 1 0.26089,2.982024 l -0.47846,0.570198 a 2.1166686,2.1166686 175.00016 0 1 -2.98203,0.260885 l -2.34701,-1.969388 a 2.1132154,2.1132154 174.95338 0 0 -2.97938,0.263105 l -7.21675,8.629098 c -0.74996,0.896732 -0.67146,2.278012 0.12909,3.129719 4.35801,4.63646 7.67918,10.23194 9.59986,16.424472 0.34627,1.11641 1.50838,1.870746 2.65932,1.665996 L 146.0068,90.87854 a 2.1198978,2.1198978 124.95637 0 0 1.7164,-2.455242 l -0.53203,-3.01728 a 2.1166684,2.1166684 125.00004 0 1 1.71696,-2.452065 l 0.73302,-0.12925 a 2.116667,2.116667 35.000018 0 1 2.45206,1.716955 l 1.18848,6.74016 a 4173134.5,4173134.5 79.999985 0 0 0.73511,4.169019 l 1.18847,6.740153 a 2.1166635,2.1166635 125 0 1 -1.71695,2.45206 l -0.73303,0.12926 a 2.116669,2.116669 35.00001 0 1 -2.45207,-1.71696 l -0.53202,-3.01727 a 2.115155,2.115155 34.97951 0 0 -2.45181,-1.715467 l -11.09293,1.964157 c -1.1511,0.20382 -2.0124,1.31455 -1.98128,2.48305 0.0175,0.65697 0.0214,2.13817 -0.0355,3.30567 -0.23758,4.87925 -1.2899,9.5451 -2.98857,13.87605 -0.4268,1.08819 0.002,2.42483 1.01493,3.00858 l 9.82068,5.6602 a 2.1182451,2.1182451 164.9786 0 0 2.89221,-0.77612 l 1.53191,-2.65334 a 2.1166635,2.1166635 165 0 1 2.89142,-0.77476 l 0.64461,0.37218 a 2.116669,2.116669 75.00001 0 1 0.77476,2.89142 l -3.42207,5.92719 -5.53874,9.59338 a 2.1166651,2.1166651 165.00002 0 1 -2.89142,0.77476 l -0.64461,-0.37218 a 2.1166674,2.1166674 75.000033 0 1 -0.77476,-2.89142 l 1.53192,-2.65334 a 2.1122623,2.1122623 74.94035 0 0 -0.77696,-2.8876 l -9.82725,-5.64652 c -1.0136,-0.58239 -2.38366,-0.28083 -3.10898,0.6358 -3.84654,4.8611 -8.67581,8.88579 -14.20673,11.74737 -1.03816,0.53713 -1.57965,1.81657 -1.18053,2.91533 l 3.84732,10.59154 a 2.115312,2.115312 25.018364 0 0 2.71169,1.26554 l 2.87904,-1.04789 a 2.1166716,2.1166716 24.999956 0 1 2.71297,1.26507 l 0.25457,0.69945 a 2.116661,2.116661 114.99997 0 1 -1.26507,2.71295 l -6.43138,2.34083 a 3923106.6,3923106.6 160.00001 0 0 -3.97804,1.44788 l -6.4314,2.34085 a 2.1166606,2.1166606 25.000064 0 1 -2.71296,-1.26508 l -0.25457,-0.69944 a 2.116673,2.116673 115.00006 0 1 1.26508,-2.71296 l 2.87905,-1.0479 a 2.1168347,2.1168347 115.00225 0 0 1.26523,-2.71301 l -3.86873,-10.63189 c -0.39974,-1.09853 -1.6456,-1.76681 -2.79404,-1.54904 -2.063382,0.39126 -4.176158,0.65022 -6.334474,0.75363 -1.167549,0.0559 -3.064156,0.0559 -4.231708,0 -2.158317,-0.10341 -4.271094,-0.36237 -6.334477,-0.75363 -1.148442,-0.21777 -2.070275,-0.44003 -2.07031,-0.44003 z"
         inkscape:connector-curvature="0" />
      <path
         id="path1166"
         style="fill:#ff0000;fill-opacity:0.7028302;stroke:#c23838;stroke-width:1.765;stroke-opacity:1;stroke-miterlimit:4;stroke-dasharray:none"
         d="M 91.524103,15.286991 A 88.758291,88.758291 0 0 0 2.821505,104.04538 88.758291,88.758291 0 0 0 91.579903,192.80327 88.758291,88.758291 0 0 0 180.33832,104.04538 88.758291,88.758291 0 0 0 91.579903,15.286991 a 88.758291,88.758291 0 0 0 -0.0558,0 z m 0.0558,21.06073 a 67.69741,67.69741 0 0 1 67.697687,67.697659 67.69741,67.69741 0 0 1 -13.37386,40.396 L 51.183933,49.721581 a 67.69741,67.69741 0 0 1 40.39597,-13.37386 z m -54.3238,27.30169 94.719797,94.719799 A 67.69741,67.69741 0 0 1 91.579903,171.74254 67.69741,67.69741 0 0 1 23.882741,104.04538 67.69741,67.69741 0 0 1 37.256103,63.649411 Z" />
    </g>
  </g>
</svg>
